<?xml version="1.0" encoding="UTF-8"?>
<svg width="750px" height="500px" viewBox="0 0 750 500" version="1.1" xmlns="http://www.w3.org/2000/svg" xmlns:xlink="http://www.w3.org/1999/xlink">
    <title>profile_1</title>
    <defs>
        <polygon id="path-1" points="0.679 0.121 4.857 0.121 4.857 20 0.679 20"></polygon>
        <polygon id="path-3" points="0.679 0.121 4.857 0.121 4.857 20 0.679 20"></polygon>
        <polygon id="path-5" points="0.275 0 98.864 0 98.864 77.902 0.275 77.902"></polygon>
        <polygon id="path-7" points="0.107 0 514.177 0 514.177 363.018 0.107 363.018"></polygon>
        <polygon id="path-9" points="0.316 0 67.711 0 67.711 144.249 0.316 144.249"></polygon>
        <path d="M19.7565076,0.875832105 C16.6058283,1.15199962 13.4163815,1.293 10.194,1.293 C6.97167253,1.293 3.78227962,1.15199962 0.631654199,0.875832105" id="path-11"></path>
        <path d="M20.241,0.675 L20.2398504,22.607013 C12.7390602,16.2333077 6.11962272,8.85373208 0.590011401,0.676770938" id="path-13"></path>
        <path d="M47.4390317,0.675 L47.4390317,45.8936596 C29.700762,42.093026 13.5770393,33.9401272 0.239850448,22.607013 L0.241,0.675" id="path-15"></path>
        <path d="M47.638,0.675 L47.6375185,45.5177201 C42.7937118,46.6374039 37.8252788,47.4315374 32.7565076,47.8758321 L13.6316542,47.8758321 C9.15007784,47.4830003 4.74694115,46.81668 0.439,45.8936596 L0.439,0.675" id="path-17"></path>
        <path d="M26,0.675 L26.0005793,36.1598084 C18.0713731,40.2836635 9.56665477,43.4535904 0.638521137,45.5174884 L0.638,0.675" id="path-19"></path>
        <path d="M38.241,0.476 L38.241,47.675 L18.5900114,47.6767709 C9.25985659,33.8797228 3.03244424,17.8125128 0.909234244,0.476654656" id="path-21"></path>
        <polygon id="path-23" points="0.241 0.476 47.439 0.476 47.439 47.675 0.241 47.675"></polygon>
        <polygon id="path-25" points="0.439 0.476 47.638 0.476 47.638 47.675 0.439 47.675"></polygon>
        <polygon id="path-27" points="0.638 0.476 26 0.476 26 47.675 0.638 47.675"></polygon>
        <path d="M5.53253553,0.275642157 L38.241,0.277 L38.241,47.476 L0.909234244,47.4766547 C0.376355466,43.1257375 0.102,38.6949082 0.102,34.2" id="path-29"></path>
        <polygon id="path-31" points="0.241 0.277 47.439 0.277 47.439 47.476 0.241 47.476"></polygon>
        <polygon id="path-33" points="0.439 0.277 47.638 0.277 47.638 47.476 0.439 47.476"></polygon>
        <polygon id="path-35" points="0.638 0.277 26 0.277 26 47.476 0.638 47.476"></polygon>
        <path d="M33.241,0 L33.241,14.277 L0.532535528,14.2756422 C2.15909027,9.35057186 4.1301537,4.58222365 6.41719067,-0.000865781736" id="path-37"></path>
        <polygon id="path-39" points="0.241 0.117 47.439 0.117 47.439 14.277 0.241 14.277"></polygon>
        <polyline id="path-41" points="47.637 0 47.638 14.277 0.439 14.277 0.439 0"></polyline>
        <polygon id="path-43" points="0.638 0.117 26 0.117 26 14.277 0.638 14.277"></polygon>
        <polyline id="path-45" points="1.091 0.158 2.671 1 0.642 1"></polyline>
        <path d="M15.9465965,0.413403267 C25.1011598,9.35279288 32.4596689,19.7389421 37.8476906,30.9992167 L1.673,31 L0.091,30.157" id="path-47"></path>
        <polyline id="path-49" points="12.439 0.957 54.091 23.158 53.642 24 0.157 24"></polyline>
        <path d="M17.7044104,0.563781175 C22.9634783,2.38964432 28.148891,4.64618341 33.216,7.347 C42.5053486,12.2983099 50.7768134,18.4121426 57.9465965,25.4134033 L42.091,55.158 L0.439,32.957" id="path-51"></path>
        <polyline id="path-53" points="2.587 0.408 9.326 4 0.673 4"></polyline>
        <polyline id="path-55" points="22.788 0.757 64.439 22.957 52.157 46 7.326 46 0.587 42.408"></polyline>
        <path d="M59.7044104,6.56378117 L42.439,38.957 L0.788,16.757 L8.77637194,1.76696602" id="path-57"></path>
        <polyline id="path-59" points="0 0.17 28.587 15.408 26.673 19 0 19"></polyline>
        <path d="M34.7060738,0.182122029 L50.788,8.757 L28.587,50.408 L0,35.17 L-0.000531385612,22.2567465" id="path-61"></path>
        <path d="M24.7763719,0.766966022 L16.788,15.757 L0.706073799,7.18212203" id="path-63"></path>
        <polygon id="path-65" points="0.491 0.692 565 0.692 565 183 0.491 183"></polygon>
        <polygon id="path-67" points="0 0.9 750 0.9 750 270 0 270"></polygon>
    </defs>
    <g id="profile_1" stroke="none" stroke-width="1" fill="none" fill-rule="evenodd">
        <polygon id="Fill-1" fill="#F9F8F5" points="0 500 750 500 750 0 0 0"></polygon>
        <path d="M519.768,412.965 C518.614,412.965 517.679,412.029 517.679,410.876 C517.679,409.722 518.614,408.786 519.768,408.786 C520.922,408.786 521.857,409.722 521.857,410.876 C521.857,412.029 520.922,412.965 519.768,412.965" id="Fill-2" fill="#000105"></path>
        <path d="M519.768,430.921 C518.614,430.921 517.679,429.985 517.679,428.831 C517.679,427.678 518.614,426.742 519.768,426.742 C520.922,426.742 521.857,427.678 521.857,428.831 C521.857,429.985 520.922,430.921 519.768,430.921" id="Fill-3" fill="#000105"></path>
        <path d="M519.768,448.877 C518.614,448.877 517.679,447.941 517.679,446.787 C517.679,445.634 518.614,444.698 519.768,444.698 C520.922,444.698 521.857,445.634 521.857,446.787 C521.857,447.941 520.922,448.877 519.768,448.877" id="Fill-4" fill="#000105"></path>
        <path d="M519.768,466.833 C518.614,466.833 517.679,465.897 517.679,464.743 C517.679,463.59 518.614,462.654 519.768,462.654 C520.922,462.654 521.857,463.59 521.857,464.743 C521.857,465.897 520.922,466.833 519.768,466.833" id="Fill-5" fill="#000105"></path>
        <g id="Group-9" transform="translate(517.000000, 480.000000)">
            <mask id="mask-2" fill="white">
                <use xlink:href="#path-1"></use>
            </mask>
            <g id="Clip-7"></g>
            <path d="M2.768,4.3 C1.614,4.3 0.679,3.364 0.679,2.21 C0.679,1.057 1.614,0.121 2.768,0.121 C3.922,0.121 4.857,1.057 4.857,2.21 C4.857,3.364 3.922,4.3 2.768,4.3" id="Fill-6" fill="#000105" mask="url(#mask-2)"></path>
            <path d="M2.768,22.256 C1.614,22.256 0.679,21.32 0.679,20.166 C0.679,19.013 1.614,18.077 2.768,18.077 C3.922,18.077 4.857,19.013 4.857,20.166 C4.857,21.32 3.922,22.256 2.768,22.256" id="Fill-8" fill="#000105" mask="url(#mask-2)"></path>
        </g>
        <path d="M498.768,412.965 C497.614,412.965 496.679,412.029 496.679,410.876 C496.679,409.722 497.614,408.786 498.768,408.786 C499.922,408.786 500.857,409.722 500.857,410.876 C500.857,412.029 499.922,412.965 498.768,412.965" id="Fill-10" fill="#000105"></path>
        <path d="M498.768,430.921 C497.614,430.921 496.679,429.985 496.679,428.831 C496.679,427.678 497.614,426.742 498.768,426.742 C499.922,426.742 500.857,427.678 500.857,428.831 C500.857,429.985 499.922,430.921 498.768,430.921" id="Fill-11" fill="#000105"></path>
        <path d="M498.768,448.877 C497.614,448.877 496.679,447.941 496.679,446.787 C496.679,445.634 497.614,444.698 498.768,444.698 C499.922,444.698 500.857,445.634 500.857,446.787 C500.857,447.941 499.922,448.877 498.768,448.877" id="Fill-12" fill="#000105"></path>
        <path d="M498.768,466.833 C497.614,466.833 496.679,465.897 496.679,464.743 C496.679,463.59 497.614,462.654 498.768,462.654 C499.922,462.654 500.857,463.59 500.857,464.743 C500.857,465.897 499.922,466.833 498.768,466.833" id="Fill-13" fill="#000105"></path>
        <g id="Group-17" transform="translate(496.000000, 480.000000)">
            <mask id="mask-4" fill="white">
                <use xlink:href="#path-3"></use>
            </mask>
            <g id="Clip-15"></g>
            <path d="M2.768,4.3 C1.614,4.3 0.679,3.364 0.679,2.21 C0.679,1.057 1.614,0.121 2.768,0.121 C3.922,0.121 4.857,1.057 4.857,2.21 C4.857,3.364 3.922,4.3 2.768,4.3" id="Fill-14" fill="#000105" mask="url(#mask-4)"></path>
            <path d="M2.768,22.256 C1.614,22.256 0.679,21.32 0.679,20.166 C0.679,19.013 1.614,18.077 2.768,18.077 C3.922,18.077 4.857,19.013 4.857,20.166 C4.857,21.32 3.922,22.256 2.768,22.256" id="Fill-16" fill="#000105" mask="url(#mask-4)"></path>
        </g>
        <polyline id="Fill-18" fill="#000105" points="103.341 365.167 103.341 364.517 25.779 364.517 25.779 287.605 102.691 287.605 102.691 365.167 103.341 365.167 103.341 364.517 103.341 365.167 103.991 365.167 103.991 286.305 24.479 286.305 24.479 365.817 103.991 365.817 103.991 365.167 103.341 365.167"></polyline>
        <polyline id="Fill-19" fill="#000105" points="24.67 365.627 54.383 395.339 134.221 395.339 134.221 315.88 103.793 286.487 102.89 287.422 132.921 316.432 132.921 394.039 54.921 394.039 25.589 364.707 24.67 365.627"></polyline>
        <polyline id="Fill-20" fill="#000105" points="102.882 365.627 132.758 395.502 133.677 394.583 103.801 364.707 102.882 365.627"></polyline>
        <path d="M334.427,50.105 C332.543,50.105 331.017,48.578 331.017,46.695 C331.017,44.811 332.543,43.284 334.427,43.284 C336.311,43.284 337.837,44.811 337.837,46.695 C337.837,48.578 336.311,50.105 334.427,50.105" id="Fill-21" fill="#E0564C"></path>
        <path d="M363.738,50.105 C361.854,50.105 360.327,48.578 360.327,46.695 C360.327,44.811 361.854,43.284 363.738,43.284 C365.621,43.284 367.148,44.811 367.148,46.695 C367.148,48.578 365.621,50.105 363.738,50.105" id="Fill-22" fill="#E0564C"></path>
        <path d="M393.049,50.105 C391.165,50.105 389.638,48.578 389.638,46.695 C389.638,44.811 391.165,43.284 393.049,43.284 C394.932,43.284 396.459,44.811 396.459,46.695 C396.459,48.578 394.932,50.105 393.049,50.105" id="Fill-23" fill="#E0564C"></path>
        <path d="M422.359,50.105 C420.476,50.105 418.949,48.578 418.949,46.695 C418.949,44.811 420.476,43.284 422.359,43.284 C424.243,43.284 425.769,44.811 425.769,46.695 C425.769,48.578 424.243,50.105 422.359,50.105" id="Fill-24" fill="#E0564C"></path>
        <path d="M334.427,77.902 C332.543,77.902 331.017,76.375 331.017,74.492 C331.017,72.608 332.543,71.081 334.427,71.081 C336.311,71.081 337.837,72.608 337.837,74.492 C337.837,76.375 336.311,77.902 334.427,77.902" id="Fill-25" fill="#E0564C"></path>
        <path d="M363.738,77.902 C361.854,77.902 360.327,76.375 360.327,74.492 C360.327,72.608 361.854,71.081 363.738,71.081 C365.621,71.081 367.148,72.608 367.148,74.492 C367.148,76.375 365.621,77.902 363.738,77.902" id="Fill-26" fill="#E0564C"></path>
        <path d="M393.049,77.902 C391.165,77.902 389.638,76.375 389.638,74.492 C389.638,72.608 391.165,71.081 393.049,71.081 C394.932,71.081 396.459,72.608 396.459,74.492 C396.459,76.375 394.932,77.902 393.049,77.902" id="Fill-27" fill="#E0564C"></path>
        <g id="Group-32" transform="translate(414.000000, 0.000000)">
            <mask id="mask-6" fill="white">
                <use xlink:href="#path-5"></use>
            </mask>
            <g id="Clip-29"></g>
            <path d="M8.359,77.902 C6.476,77.902 4.949,76.375 4.949,74.492 C4.949,72.608 6.476,71.081 8.359,71.081 C10.243,71.081 11.769,72.608 11.769,74.492 C11.769,76.375 10.243,77.902 8.359,77.902" id="Fill-28" fill="#E0564C" mask="url(#mask-6)"></path>
            <polyline id="Fill-30" fill="#000105" mask="url(#mask-6)" points="28.046 25.402 28.046 26.052 98.864 26.052 98.864 -45.416 27.396 -45.416 27.396 26.052 28.046 26.052 28.046 25.402 28.696 25.402 28.696 -44.116 97.564 -44.116 97.564 24.752 28.046 24.752 28.046 25.402 28.696 25.402 28.046 25.402"></polyline>
            <polyline id="Fill-31" fill="#000105" mask="url(#mask-6)" points="97.754 24.943 71.458 51.239 1.575 51.239 1.575 -18.299 28.044 -44.768 27.124 -45.687 0.275 -18.838 0.275 52.539 71.997 52.539 98.673 25.862 97.754 24.943"></polyline>
        </g>
        <polyline id="Fill-33" fill="#000105" points="441.586 24.943 414.783 51.746 415.702 52.666 442.505 25.862"></polyline>
        <polyline id="Fill-34" fill="#000105" points="559.664 334.174 570.526 347.084 580.622 335.083 590.72 347.084 600.813 335.084 610.908 347.083 621.006 335.083 631.107 347.083 641.204 335.083 651.309 347.083 662.177 334.174 660.647 332.886 651.309 343.978 641.204 331.977 631.106 343.977 621.006 331.977 610.908 343.977 600.813 331.977 590.72 343.977 580.622 331.977 570.526 343.977 561.194 332.886 559.664 334.174"></polyline>
        <g id="Group-38" transform="translate(148.000000, 0.000000)">
            <mask id="mask-8" fill="white">
                <use xlink:href="#path-7"></use>
            </mask>
            <g id="Clip-36"></g>
            <polyline id="Fill-35" fill="#000105" mask="url(#mask-8)" points="411.664 350.109 422.526 363.018 432.622 351.018 442.72 363.018 452.813 351.018 462.908 363.018 473.006 351.018 483.106 363.018 493.204 351.018 503.309 363.017 514.177 350.109 512.647 348.821 503.309 359.912 493.204 347.912 483.106 359.912 473.006 347.912 462.908 359.912 452.813 347.911 442.72 359.911 432.622 347.911 422.526 359.912 413.194 348.821 411.664 350.109"></polyline>
            <polyline id="Fill-37" fill="#000105" mask="url(#mask-8)" points="0.107 -3.101 11.987 9.688 23.134 -2.312 34.281 9.688 45.425 -2.312 56.57 9.688 67.717 -2.313 78.868 9.687 90.016 -2.313 101.171 9.687 113.059 -3.101 111.594 -4.463 101.171 6.75 90.016 -5.251 78.868 6.749 67.717 -5.251 56.57 6.749 45.425 -5.251 34.281 6.749 23.134 -5.251 11.987 6.749 1.572 -4.462 0.107 -3.101"></polyline>
        </g>
        <polyline id="Fill-39" fill="#000105" points="148.107 14.491 159.987 27.279 171.134 15.279 182.281 27.279 193.425 15.28 204.57 27.279 215.717 15.279 226.868 27.279 238.016 15.279 249.171 27.279 261.059 14.491 259.594 13.129 249.171 24.341 238.016 12.341 226.868 24.341 215.717 12.341 204.57 24.341 193.425 12.341 182.281 24.341 171.134 12.341 159.987 24.341 149.572 13.129 148.107 14.491"></polyline>
        <path d="M20.34,54.857 C20.34,56.797 18.768,58.37 16.828,58.37 C14.888,58.37 13.316,56.797 13.316,54.857 C13.316,52.917 14.888,51.345 16.828,51.345 C18.768,51.345 20.34,52.917 20.34,54.857" id="Fill-40" fill="#000105"></path>
        <path d="M50.526,54.857 C50.526,56.797 48.953,58.37 47.014,58.37 C45.074,58.37 43.501,56.797 43.501,54.857 C43.501,52.917 45.074,51.345 47.014,51.345 C48.953,51.345 50.526,52.917 50.526,54.857" id="Fill-41" fill="#000105"></path>
        <path d="M80.711,54.857 C80.711,56.797 79.139,58.37 77.199,58.37 C75.259,58.37 73.686,56.797 73.686,54.857 C73.686,52.917 75.259,51.345 77.199,51.345 C79.139,51.345 80.711,52.917 80.711,54.857" id="Fill-42" fill="#000105"></path>
        <path d="M20.34,83.484 C20.34,85.423 18.768,86.996 16.828,86.996 C14.888,86.996 13.316,85.423 13.316,83.484 C13.316,81.544 14.888,79.971 16.828,79.971 C18.768,79.971 20.34,81.544 20.34,83.484" id="Fill-43" fill="#000105"></path>
        <path d="M50.526,83.484 C50.526,85.423 48.953,86.996 47.014,86.996 C45.074,86.996 43.501,85.423 43.501,83.484 C43.501,81.544 45.074,79.971 47.014,79.971 C48.953,79.971 50.526,81.544 50.526,83.484" id="Fill-44" fill="#000105"></path>
        <path d="M80.711,83.484 C80.711,85.423 79.139,86.996 77.199,86.996 C75.259,86.996 73.686,85.423 73.686,83.484 C73.686,81.544 75.259,79.971 77.199,79.971 C79.139,79.971 80.711,81.544 80.711,83.484" id="Fill-45" fill="#000105"></path>
        <path d="M20.34,112.11 C20.34,114.05 18.768,115.623 16.828,115.623 C14.888,115.623 13.316,114.05 13.316,112.11 C13.316,110.17 14.888,108.598 16.828,108.598 C18.768,108.598 20.34,110.17 20.34,112.11" id="Fill-46" fill="#000105"></path>
        <path d="M50.526,112.11 C50.526,114.05 48.953,115.623 47.014,115.623 C45.074,115.623 43.501,114.05 43.501,112.11 C43.501,110.17 45.074,108.598 47.014,108.598 C48.953,108.598 50.526,110.17 50.526,112.11" id="Fill-47" fill="#000105"></path>
        <path d="M80.711,112.11 C80.711,114.05 79.139,115.623 77.199,115.623 C75.259,115.623 73.686,114.05 73.686,112.11 C73.686,110.17 75.259,108.598 77.199,108.598 C79.139,108.598 80.711,110.17 80.711,112.11" id="Fill-48" fill="#000105"></path>
        <path d="M20.34,140.737 C20.34,142.676 18.768,144.249 16.828,144.249 C14.888,144.249 13.316,142.676 13.316,140.737 C13.316,138.797 14.888,137.225 16.828,137.225 C18.768,137.225 20.34,138.797 20.34,140.737" id="Fill-49" fill="#000105"></path>
        <path d="M50.526,140.737 C50.526,142.676 48.953,144.249 47.014,144.249 C45.074,144.249 43.501,142.676 43.501,140.737 C43.501,138.797 45.074,137.225 47.014,137.225 C48.953,137.225 50.526,138.797 50.526,140.737" id="Fill-50" fill="#000105"></path>
        <g id="Group-56" transform="translate(13.000000, 0.000000)">
            <mask id="mask-10" fill="white">
                <use xlink:href="#path-9"></use>
            </mask>
            <g id="Clip-52"></g>
            <path d="M67.711,140.737 C67.711,142.676 66.139,144.249 64.199,144.249 C62.259,144.249 60.686,142.676 60.686,140.737 C60.686,138.797 62.259,137.225 64.199,137.225 C66.139,137.225 67.711,138.797 67.711,140.737" id="Fill-51" fill="#000105" mask="url(#mask-10)"></path>
            <path d="M7.34,0.682 C7.34,2.622 5.768,4.194 3.828,4.194 C1.888,4.194 0.316,2.622 0.316,0.682 C0.316,-1.258 1.888,-2.831 3.828,-2.831 C5.768,-2.831 7.34,-1.258 7.34,0.682" id="Fill-53" fill="#000105" mask="url(#mask-10)"></path>
            <path d="M37.526,0.682 C37.526,2.622 35.953,4.194 34.014,4.194 C32.074,4.194 30.501,2.622 30.501,0.682 C30.501,-1.258 32.074,-2.831 34.014,-2.831 C35.953,-2.831 37.526,-1.258 37.526,0.682" id="Fill-54" fill="#000105" mask="url(#mask-10)"></path>
            <path d="M67.711,0.682 C67.711,2.622 66.139,4.194 64.199,4.194 C62.259,4.194 60.686,2.622 60.686,0.682 C60.686,-1.258 62.259,-2.831 64.199,-2.831 C66.139,-2.831 67.711,-1.258 67.711,0.682" id="Fill-55" fill="#000105" mask="url(#mask-10)"></path>
        </g>
        <path d="M20.34,29.308 C20.34,31.248 18.768,32.82 16.828,32.82 C14.888,32.82 13.316,31.248 13.316,29.308 C13.316,27.368 14.888,25.796 16.828,25.796 C18.768,25.796 20.34,27.368 20.34,29.308" id="Fill-57" fill="#000105"></path>
        <path d="M50.526,29.308 C50.526,31.248 48.953,32.82 47.014,32.82 C45.074,32.82 43.501,31.248 43.501,29.308 C43.501,27.368 45.074,25.796 47.014,25.796 C48.953,25.796 50.526,27.368 50.526,29.308" id="Fill-58" fill="#000105"></path>
        <path d="M80.711,29.308 C80.711,31.248 79.139,32.82 77.199,32.82 C75.259,32.82 73.686,31.248 73.686,29.308 C73.686,27.368 75.259,25.796 77.199,25.796 C79.139,25.796 80.711,27.368 80.711,29.308" id="Fill-59" fill="#000105"></path>
        <path d="M90.867,201 C60.63,201 36.118,176.488 36.118,146.252 C36.118,134.789 39.642,124.147 45.664,115.354 C46.079,115.527 46.535,115.623 47.014,115.623 C48.953,115.623 50.526,114.05 50.526,112.11 C50.526,111.323 50.267,110.596 49.829,110.01 C59.861,98.661 74.528,91.503 90.867,91.503 C121.104,91.503 145.615,116.015 145.615,146.252 C145.615,176.488 121.104,201 90.867,201 M77.199,137.225 C75.259,137.225 73.686,138.797 73.686,140.737 C73.686,142.676 75.259,144.249 77.199,144.249 C79.139,144.249 80.711,142.676 80.711,140.737 C80.711,138.797 79.139,137.225 77.199,137.225 M47.014,137.225 C45.074,137.225 43.501,138.797 43.501,140.737 C43.501,142.676 45.074,144.249 47.014,144.249 C48.953,144.249 50.526,142.676 50.526,140.737 C50.526,138.797 48.953,137.225 47.014,137.225 M77.199,108.598 C75.259,108.598 73.686,110.17 73.686,112.11 C73.686,114.05 75.259,115.623 77.199,115.623 C79.139,115.623 80.711,114.05 80.711,112.11 C80.711,110.17 79.139,108.598 77.199,108.598" id="Fill-60" fill="#E0564C"></path>
        <path d="M47.014,115.623 C46.535,115.623 46.079,115.527 45.664,115.354 C46.943,113.485 48.334,111.703 49.829,110.01 C50.267,110.596 50.526,111.323 50.526,112.11 C50.526,114.05 48.953,115.623 47.014,115.623" id="Fill-61" fill="#000105"></path>
        <path d="M77.199,115.623 C75.259,115.623 73.686,114.05 73.686,112.11 C73.686,110.17 75.259,108.598 77.199,108.598 C79.139,108.598 80.711,110.17 80.711,112.11 C80.711,114.05 79.139,115.623 77.199,115.623" id="Fill-62" fill="#000105"></path>
        <path d="M47.014,144.249 C45.074,144.249 43.501,142.676 43.501,140.737 C43.501,138.797 45.074,137.225 47.014,137.225 C48.953,137.225 50.526,138.797 50.526,140.737 C50.526,142.676 48.953,144.249 47.014,144.249" id="Fill-63" fill="#000105"></path>
        <path d="M77.199,144.249 C75.259,144.249 73.686,142.676 73.686,140.737 C73.686,138.797 75.259,137.225 77.199,137.225 C79.139,137.225 80.711,138.797 80.711,140.737 C80.711,142.676 79.139,144.249 77.199,144.249" id="Fill-64" fill="#000105"></path>
        <g id="Group-67" transform="translate(690.000000, 155.000000)">
            <mask id="mask-12" fill="white">
                <use xlink:href="#path-11"></use>
            </mask>
            <g id="Clip-66"></g>
            <path d="M11.039,3.233 C12.341,3.233 13.398,2.177 13.398,0.873 C13.398,-0.429 12.341,-1.487 11.039,-1.487 C9.734,-1.487 8.678,-0.429 8.678,0.873 C8.678,2.177 9.734,3.233 11.039,3.233" id="Fill-65" fill="#161616" mask="url(#mask-12)"></path>
        </g>
        <g id="Group-72" transform="translate(610.000000, 108.000000)">
            <mask id="mask-14" fill="white">
                <use xlink:href="#path-13"></use>
            </mask>
            <g id="Clip-69"></g>
            <path d="M20.241,26.634 C21.543,26.634 22.6,25.578 22.6,24.274 C22.6,22.972 21.543,21.913 20.241,21.913 C18.937,21.913 17.88,22.972 17.88,24.274 C17.88,25.578 18.937,26.634 20.241,26.634" id="Fill-68" fill="#161616" mask="url(#mask-14)"></path>
            <path d="M8.441,14.834 C9.743,14.834 10.8,13.778 10.8,12.474 C10.8,11.172 9.743,10.114 8.441,10.114 C7.137,10.114 6.081,11.172 6.081,12.474 C6.081,13.778 7.137,14.834 8.441,14.834" id="Fill-70" fill="#161616" mask="url(#mask-14)"></path>
            <path d="M20.241,3.035 C21.543,3.035 22.6,1.979 22.6,0.674 C22.6,-0.628 21.543,-1.686 20.241,-1.686 C18.937,-1.686 17.88,-0.628 17.88,0.674 C17.88,1.979 18.937,3.035 20.241,3.035" id="Fill-71" fill="#161616" mask="url(#mask-14)"></path>
        </g>
        <g id="Group-87" transform="translate(630.000000, 108.000000)">
            <mask id="mask-16" fill="white">
                <use xlink:href="#path-15"></use>
            </mask>
            <g id="Clip-74"></g>
            <path d="M23.84,50.233 C25.142,50.233 26.199,49.177 26.199,47.873 C26.199,46.571 25.142,45.513 23.84,45.513 C22.536,45.513 21.48,46.571 21.48,47.873 C21.48,49.177 22.536,50.233 23.84,50.233" id="Fill-73" fill="#161616" mask="url(#mask-16)"></path>
            <path d="M47.439,50.233 C48.741,50.233 49.799,49.177 49.799,47.873 C49.799,46.571 48.741,45.513 47.439,45.513 C46.135,45.513 45.079,46.571 45.079,47.873 C45.079,49.177 46.135,50.233 47.439,50.233" id="Fill-75" fill="#161616" mask="url(#mask-16)"></path>
            <path d="M23.84,26.634 C25.142,26.634 26.199,25.578 26.199,24.274 C26.199,22.972 25.142,21.913 23.84,21.913 C22.536,21.913 21.48,22.972 21.48,24.274 C21.48,25.578 22.536,26.634 23.84,26.634" id="Fill-76" fill="#161616" mask="url(#mask-16)"></path>
            <path d="M47.439,26.634 C48.741,26.634 49.799,25.578 49.799,24.274 C49.799,22.972 48.741,21.913 47.439,21.913 C46.135,21.913 45.079,22.972 45.079,24.274 C45.079,25.578 46.135,26.634 47.439,26.634" id="Fill-77" fill="#161616" mask="url(#mask-16)"></path>
            <path d="M35.64,38.434 C36.942,38.434 37.999,37.377 37.999,36.073 C37.999,34.771 36.942,33.713 35.64,33.713 C34.336,33.713 33.279,34.771 33.279,36.073 C33.279,37.377 34.336,38.434 35.64,38.434" id="Fill-78" fill="#161616" mask="url(#mask-16)"></path>
            <path d="M12.04,38.434 C13.342,38.434 14.4,37.377 14.4,36.073 C14.4,34.771 13.342,33.713 12.04,33.713 C10.736,33.713 9.68,34.771 9.68,36.073 C9.68,37.377 10.736,38.434 12.04,38.434" id="Fill-79" fill="#161616" mask="url(#mask-16)"></path>
            <path d="M35.64,14.834 C36.942,14.834 37.999,13.778 37.999,12.474 C37.999,11.172 36.942,10.114 35.64,10.114 C34.336,10.114 33.279,11.172 33.279,12.474 C33.279,13.778 34.336,14.834 35.64,14.834" id="Fill-80" fill="#161616" mask="url(#mask-16)"></path>
            <path d="M12.04,14.834 C13.342,14.834 14.4,13.778 14.4,12.474 C14.4,11.172 13.342,10.114 12.04,10.114 C10.736,10.114 9.68,11.172 9.68,12.474 C9.68,13.778 10.736,14.834 12.04,14.834" id="Fill-81" fill="#161616" mask="url(#mask-16)"></path>
            <path d="M0.241,50.233 C1.543,50.233 2.6,49.177 2.6,47.873 C2.6,46.571 1.543,45.513 0.241,45.513 C-1.063,45.513 -2.12,46.571 -2.12,47.873 C-2.12,49.177 -1.063,50.233 0.241,50.233" id="Fill-82" fill="#161616" mask="url(#mask-16)"></path>
            <path d="M0.241,26.634 C1.543,26.634 2.6,25.578 2.6,24.274 C2.6,22.972 1.543,21.913 0.241,21.913 C-1.063,21.913 -2.12,22.972 -2.12,24.274 C-2.12,25.578 -1.063,26.634 0.241,26.634" id="Fill-83" fill="#161616" mask="url(#mask-16)"></path>
            <path d="M23.84,3.035 C25.142,3.035 26.199,1.979 26.199,0.674 C26.199,-0.628 25.142,-1.686 23.84,-1.686 C22.536,-1.686 21.48,-0.628 21.48,0.674 C21.48,1.979 22.536,3.035 23.84,3.035" id="Fill-84" fill="#161616" mask="url(#mask-16)"></path>
            <path d="M47.439,3.035 C48.741,3.035 49.799,1.979 49.799,0.674 C49.799,-0.628 48.741,-1.686 47.439,-1.686 C46.135,-1.686 45.079,-0.628 45.079,0.674 C45.079,1.979 46.135,3.035 47.439,3.035" id="Fill-85" fill="#161616" mask="url(#mask-16)"></path>
            <path d="M0.241,3.035 C1.543,3.035 2.6,1.979 2.6,0.674 C2.6,-0.628 1.543,-1.686 0.241,-1.686 C-1.063,-1.686 -2.12,-0.628 -2.12,0.674 C-2.12,1.979 -1.063,3.035 0.241,3.035" id="Fill-86" fill="#161616" mask="url(#mask-16)"></path>
        </g>
        <g id="Group-102" transform="translate(677.000000, 108.000000)">
            <mask id="mask-18" fill="white">
                <use xlink:href="#path-17"></use>
            </mask>
            <g id="Clip-89"></g>
            <path d="M24.039,50.233 C25.341,50.233 26.398,49.177 26.398,47.873 C26.398,46.571 25.341,45.513 24.039,45.513 C22.734,45.513 21.678,46.571 21.678,47.873 C21.678,49.177 22.734,50.233 24.039,50.233" id="Fill-88" fill="#161616" mask="url(#mask-18)"></path>
            <path d="M47.638,50.233 C48.94,50.233 49.997,49.177 49.997,47.873 C49.997,46.571 48.94,45.513 47.638,45.513 C46.334,45.513 45.278,46.571 45.278,47.873 C45.278,49.177 46.334,50.233 47.638,50.233" id="Fill-90" fill="#161616" mask="url(#mask-18)"></path>
            <path d="M24.039,26.634 C25.341,26.634 26.398,25.578 26.398,24.274 C26.398,22.972 25.341,21.913 24.039,21.913 C22.734,21.913 21.678,22.972 21.678,24.274 C21.678,25.578 22.734,26.634 24.039,26.634" id="Fill-91" fill="#161616" mask="url(#mask-18)"></path>
            <path d="M47.638,26.634 C48.94,26.634 49.997,25.578 49.997,24.274 C49.997,22.972 48.94,21.913 47.638,21.913 C46.334,21.913 45.278,22.972 45.278,24.274 C45.278,25.578 46.334,26.634 47.638,26.634" id="Fill-92" fill="#161616" mask="url(#mask-18)"></path>
            <path d="M35.838,38.434 C37.14,38.434 38.198,37.377 38.198,36.073 C38.198,34.771 37.14,33.713 35.838,33.713 C34.534,33.713 33.478,34.771 33.478,36.073 C33.478,37.377 34.534,38.434 35.838,38.434" id="Fill-93" fill="#161616" mask="url(#mask-18)"></path>
            <path d="M12.239,38.434 C13.541,38.434 14.598,37.377 14.598,36.073 C14.598,34.771 13.541,33.713 12.239,33.713 C10.935,33.713 9.879,34.771 9.879,36.073 C9.879,37.377 10.935,38.434 12.239,38.434" id="Fill-94" fill="#161616" mask="url(#mask-18)"></path>
            <path d="M35.838,14.834 C37.14,14.834 38.198,13.778 38.198,12.474 C38.198,11.172 37.14,10.114 35.838,10.114 C34.534,10.114 33.478,11.172 33.478,12.474 C33.478,13.778 34.534,14.834 35.838,14.834" id="Fill-95" fill="#161616" mask="url(#mask-18)"></path>
            <path d="M12.239,14.834 C13.541,14.834 14.598,13.778 14.598,12.474 C14.598,11.172 13.541,10.114 12.239,10.114 C10.935,10.114 9.879,11.172 9.879,12.474 C9.879,13.778 10.935,14.834 12.239,14.834" id="Fill-96" fill="#161616" mask="url(#mask-18)"></path>
            <path d="M0.439,50.233 C1.741,50.233 2.799,49.177 2.799,47.873 C2.799,46.571 1.741,45.513 0.439,45.513 C-0.865,45.513 -1.921,46.571 -1.921,47.873 C-1.921,49.177 -0.865,50.233 0.439,50.233" id="Fill-97" fill="#161616" mask="url(#mask-18)"></path>
            <path d="M0.439,26.634 C1.741,26.634 2.799,25.578 2.799,24.274 C2.799,22.972 1.741,21.913 0.439,21.913 C-0.865,21.913 -1.921,22.972 -1.921,24.274 C-1.921,25.578 -0.865,26.634 0.439,26.634" id="Fill-98" fill="#161616" mask="url(#mask-18)"></path>
            <path d="M24.039,3.035 C25.341,3.035 26.398,1.979 26.398,0.674 C26.398,-0.628 25.341,-1.686 24.039,-1.686 C22.734,-1.686 21.678,-0.628 21.678,0.674 C21.678,1.979 22.734,3.035 24.039,3.035" id="Fill-99" fill="#161616" mask="url(#mask-18)"></path>
            <path d="M47.638,3.035 C48.94,3.035 49.997,1.979 49.997,0.674 C49.997,-0.628 48.94,-1.686 47.638,-1.686 C46.334,-1.686 45.278,-0.628 45.278,0.674 C45.278,1.979 46.334,3.035 47.638,3.035" id="Fill-100" fill="#161616" mask="url(#mask-18)"></path>
            <path d="M0.439,3.035 C1.741,3.035 2.799,1.979 2.799,0.674 C2.799,-0.628 1.741,-1.686 0.439,-1.686 C-0.865,-1.686 -1.921,-0.628 -1.921,0.674 C-1.921,1.979 -0.865,3.035 0.439,3.035" id="Fill-101" fill="#161616" mask="url(#mask-18)"></path>
        </g>
        <g id="Group-112" transform="translate(724.000000, 108.000000)">
            <mask id="mask-20" fill="white">
                <use xlink:href="#path-19"></use>
            </mask>
            <g id="Clip-104"></g>
            <path d="M24.237,50.233 C25.539,50.233 26.596,49.177 26.596,47.873 C26.596,46.571 25.539,45.513 24.237,45.513 C22.933,45.513 21.877,46.571 21.877,47.873 C21.877,49.177 22.933,50.233 24.237,50.233" id="Fill-103" fill="#161616" mask="url(#mask-20)"></path>
            <path d="M24.237,26.634 C25.539,26.634 26.596,25.578 26.596,24.274 C26.596,22.972 25.539,21.913 24.237,21.913 C22.933,21.913 21.877,22.972 21.877,24.274 C21.877,25.578 22.933,26.634 24.237,26.634" id="Fill-105" fill="#161616" mask="url(#mask-20)"></path>
            <path d="M12.438,38.434 C13.74,38.434 14.797,37.377 14.797,36.073 C14.797,34.771 13.74,33.713 12.438,33.713 C11.133,33.713 10.077,34.771 10.077,36.073 C10.077,37.377 11.133,38.434 12.438,38.434" id="Fill-106" fill="#161616" mask="url(#mask-20)"></path>
            <path d="M12.438,14.834 C13.74,14.834 14.797,13.778 14.797,12.474 C14.797,11.172 13.74,10.114 12.438,10.114 C11.133,10.114 10.077,11.172 10.077,12.474 C10.077,13.778 11.133,14.834 12.438,14.834" id="Fill-107" fill="#161616" mask="url(#mask-20)"></path>
            <path d="M0.638,50.233 C1.94,50.233 2.997,49.177 2.997,47.873 C2.997,46.571 1.94,45.513 0.638,45.513 C-0.666,45.513 -1.722,46.571 -1.722,47.873 C-1.722,49.177 -0.666,50.233 0.638,50.233" id="Fill-108" fill="#161616" mask="url(#mask-20)"></path>
            <path d="M0.638,26.634 C1.94,26.634 2.997,25.578 2.997,24.274 C2.997,22.972 1.94,21.913 0.638,21.913 C-0.666,21.913 -1.722,22.972 -1.722,24.274 C-1.722,25.578 -0.666,26.634 0.638,26.634" id="Fill-109" fill="#161616" mask="url(#mask-20)"></path>
            <path d="M24.237,3.035 C25.539,3.035 26.596,1.979 26.596,0.674 C26.596,-0.628 25.539,-1.686 24.237,-1.686 C22.933,-1.686 21.877,-0.628 21.877,0.674 C21.877,1.979 22.933,3.035 24.237,3.035" id="Fill-110" fill="#161616" mask="url(#mask-20)"></path>
            <path d="M0.638,3.035 C1.94,3.035 2.997,1.979 2.997,0.674 C2.997,-0.628 1.94,-1.686 0.638,-1.686 C-0.666,-1.686 -1.722,-0.628 -1.722,0.674 C-1.722,1.979 -0.666,3.035 0.638,3.035" id="Fill-111" fill="#161616" mask="url(#mask-20)"></path>
        </g>
        <g id="Group-124" transform="translate(592.000000, 61.000000)">
            <mask id="mask-22" fill="white">
                <use xlink:href="#path-21"></use>
            </mask>
            <g id="Clip-114"></g>
            <path d="M14.641,50.035 C15.944,50.035 17.001,48.978 17.001,47.674 C17.001,46.372 15.944,45.314 14.641,45.314 C13.337,45.314 12.281,46.372 12.281,47.674 C12.281,48.978 13.337,50.035 14.641,50.035" id="Fill-113" fill="#161616" mask="url(#mask-22)"></path>
            <path d="M38.241,50.035 C39.543,50.035 40.6,48.978 40.6,47.674 C40.6,46.372 39.543,45.314 38.241,45.314 C36.937,45.314 35.88,46.372 35.88,47.674 C35.88,48.978 36.937,50.035 38.241,50.035" id="Fill-115" fill="#161616" mask="url(#mask-22)"></path>
            <path d="M14.641,26.435 C15.944,26.435 17.001,25.379 17.001,24.075 C17.001,22.773 15.944,21.715 14.641,21.715 C13.337,21.715 12.281,22.773 12.281,24.075 C12.281,25.379 13.337,26.435 14.641,26.435" id="Fill-116" fill="#161616" mask="url(#mask-22)"></path>
            <path d="M38.241,26.435 C39.543,26.435 40.6,25.379 40.6,24.075 C40.6,22.773 39.543,21.715 38.241,21.715 C36.937,21.715 35.88,22.773 35.88,24.075 C35.88,25.379 36.937,26.435 38.241,26.435" id="Fill-117" fill="#161616" mask="url(#mask-22)"></path>
            <path d="M26.441,38.235 C27.743,38.235 28.8,37.179 28.8,35.875 C28.8,34.573 27.743,33.514 26.441,33.514 C25.137,33.514 24.081,34.573 24.081,35.875 C24.081,37.179 25.137,38.235 26.441,38.235" id="Fill-118" fill="#161616" mask="url(#mask-22)"></path>
            <path d="M2.842,38.235 C4.144,38.235 5.201,37.179 5.201,35.875 C5.201,34.573 4.144,33.514 2.842,33.514 C1.538,33.514 0.482,34.573 0.482,35.875 C0.482,37.179 1.538,38.235 2.842,38.235" id="Fill-119" fill="#161616" mask="url(#mask-22)"></path>
            <path d="M26.441,14.636 C27.743,14.636 28.8,13.58 28.8,12.276 C28.8,10.974 27.743,9.915 26.441,9.915 C25.137,9.915 24.081,10.974 24.081,12.276 C24.081,13.58 25.137,14.636 26.441,14.636" id="Fill-120" fill="#161616" mask="url(#mask-22)"></path>
            <path d="M2.842,14.636 C4.144,14.636 5.201,13.58 5.201,12.276 C5.201,10.974 4.144,9.915 2.842,9.915 C1.538,9.915 0.482,10.974 0.482,12.276 C0.482,13.58 1.538,14.636 2.842,14.636" id="Fill-121" fill="#161616" mask="url(#mask-22)"></path>
            <path d="M14.641,2.836 C15.944,2.836 17.001,1.78 17.001,0.476 C17.001,-0.826 15.944,-1.884 14.641,-1.884 C13.337,-1.884 12.281,-0.826 12.281,0.476 C12.281,1.78 13.337,2.836 14.641,2.836" id="Fill-122" fill="#161616" mask="url(#mask-22)"></path>
            <path d="M38.241,2.836 C39.543,2.836 40.6,1.78 40.6,0.476 C40.6,-0.826 39.543,-1.884 38.241,-1.884 C36.937,-1.884 35.88,-0.826 35.88,0.476 C35.88,1.78 36.937,2.836 38.241,2.836" id="Fill-123" fill="#161616" mask="url(#mask-22)"></path>
        </g>
        <g id="Group-139" transform="translate(630.000000, 61.000000)">
            <mask id="mask-24" fill="white">
                <use xlink:href="#path-23"></use>
            </mask>
            <g id="Clip-126"></g>
            <path d="M23.84,50.035 C25.142,50.035 26.199,48.978 26.199,47.674 C26.199,46.372 25.142,45.314 23.84,45.314 C22.536,45.314 21.48,46.372 21.48,47.674 C21.48,48.978 22.536,50.035 23.84,50.035" id="Fill-125" fill="#161616" mask="url(#mask-24)"></path>
            <path d="M47.439,50.035 C48.741,50.035 49.799,48.978 49.799,47.674 C49.799,46.372 48.741,45.314 47.439,45.314 C46.135,45.314 45.079,46.372 45.079,47.674 C45.079,48.978 46.135,50.035 47.439,50.035" id="Fill-127" fill="#161616" mask="url(#mask-24)"></path>
            <path d="M23.84,26.435 C25.142,26.435 26.199,25.379 26.199,24.075 C26.199,22.773 25.142,21.715 23.84,21.715 C22.536,21.715 21.48,22.773 21.48,24.075 C21.48,25.379 22.536,26.435 23.84,26.435" id="Fill-128" fill="#161616" mask="url(#mask-24)"></path>
            <path d="M47.439,26.435 C48.741,26.435 49.799,25.379 49.799,24.075 C49.799,22.773 48.741,21.715 47.439,21.715 C46.135,21.715 45.079,22.773 45.079,24.075 C45.079,25.379 46.135,26.435 47.439,26.435" id="Fill-129" fill="#161616" mask="url(#mask-24)"></path>
            <path d="M35.64,38.235 C36.942,38.235 37.999,37.179 37.999,35.875 C37.999,34.573 36.942,33.514 35.64,33.514 C34.336,33.514 33.279,34.573 33.279,35.875 C33.279,37.179 34.336,38.235 35.64,38.235" id="Fill-130" fill="#161616" mask="url(#mask-24)"></path>
            <path d="M12.04,38.235 C13.342,38.235 14.4,37.179 14.4,35.875 C14.4,34.573 13.342,33.514 12.04,33.514 C10.736,33.514 9.68,34.573 9.68,35.875 C9.68,37.179 10.736,38.235 12.04,38.235" id="Fill-131" fill="#161616" mask="url(#mask-24)"></path>
            <path d="M35.64,14.636 C36.942,14.636 37.999,13.58 37.999,12.276 C37.999,10.974 36.942,9.915 35.64,9.915 C34.336,9.915 33.279,10.974 33.279,12.276 C33.279,13.58 34.336,14.636 35.64,14.636" id="Fill-132" fill="#161616" mask="url(#mask-24)"></path>
            <path d="M12.04,14.636 C13.342,14.636 14.4,13.58 14.4,12.276 C14.4,10.974 13.342,9.915 12.04,9.915 C10.736,9.915 9.68,10.974 9.68,12.276 C9.68,13.58 10.736,14.636 12.04,14.636" id="Fill-133" fill="#161616" mask="url(#mask-24)"></path>
            <path d="M0.241,50.035 C1.543,50.035 2.6,48.978 2.6,47.674 C2.6,46.372 1.543,45.314 0.241,45.314 C-1.063,45.314 -2.12,46.372 -2.12,47.674 C-2.12,48.978 -1.063,50.035 0.241,50.035" id="Fill-134" fill="#161616" mask="url(#mask-24)"></path>
            <path d="M0.241,26.435 C1.543,26.435 2.6,25.379 2.6,24.075 C2.6,22.773 1.543,21.715 0.241,21.715 C-1.063,21.715 -2.12,22.773 -2.12,24.075 C-2.12,25.379 -1.063,26.435 0.241,26.435" id="Fill-135" fill="#161616" mask="url(#mask-24)"></path>
            <path d="M23.84,2.836 C25.142,2.836 26.199,1.78 26.199,0.476 C26.199,-0.826 25.142,-1.884 23.84,-1.884 C22.536,-1.884 21.48,-0.826 21.48,0.476 C21.48,1.78 22.536,2.836 23.84,2.836" id="Fill-136" fill="#161616" mask="url(#mask-24)"></path>
            <path d="M47.439,2.836 C48.741,2.836 49.799,1.78 49.799,0.476 C49.799,-0.826 48.741,-1.884 47.439,-1.884 C46.135,-1.884 45.079,-0.826 45.079,0.476 C45.079,1.78 46.135,2.836 47.439,2.836" id="Fill-137" fill="#161616" mask="url(#mask-24)"></path>
            <path d="M0.241,2.836 C1.543,2.836 2.6,1.78 2.6,0.476 C2.6,-0.826 1.543,-1.884 0.241,-1.884 C-1.063,-1.884 -2.12,-0.826 -2.12,0.476 C-2.12,1.78 -1.063,2.836 0.241,2.836" id="Fill-138" fill="#161616" mask="url(#mask-24)"></path>
        </g>
        <g id="Group-154" transform="translate(677.000000, 61.000000)">
            <mask id="mask-26" fill="white">
                <use xlink:href="#path-25"></use>
            </mask>
            <g id="Clip-141"></g>
            <path d="M24.039,50.035 C25.341,50.035 26.398,48.978 26.398,47.674 C26.398,46.372 25.341,45.314 24.039,45.314 C22.734,45.314 21.678,46.372 21.678,47.674 C21.678,48.978 22.734,50.035 24.039,50.035" id="Fill-140" fill="#161616" mask="url(#mask-26)"></path>
            <path d="M47.638,50.035 C48.94,50.035 49.997,48.978 49.997,47.674 C49.997,46.372 48.94,45.314 47.638,45.314 C46.334,45.314 45.278,46.372 45.278,47.674 C45.278,48.978 46.334,50.035 47.638,50.035" id="Fill-142" fill="#161616" mask="url(#mask-26)"></path>
            <path d="M24.039,26.435 C25.341,26.435 26.398,25.379 26.398,24.075 C26.398,22.773 25.341,21.715 24.039,21.715 C22.734,21.715 21.678,22.773 21.678,24.075 C21.678,25.379 22.734,26.435 24.039,26.435" id="Fill-143" fill="#161616" mask="url(#mask-26)"></path>
            <path d="M47.638,26.435 C48.94,26.435 49.997,25.379 49.997,24.075 C49.997,22.773 48.94,21.715 47.638,21.715 C46.334,21.715 45.278,22.773 45.278,24.075 C45.278,25.379 46.334,26.435 47.638,26.435" id="Fill-144" fill="#161616" mask="url(#mask-26)"></path>
            <path d="M35.838,38.235 C37.14,38.235 38.198,37.179 38.198,35.875 C38.198,34.573 37.14,33.514 35.838,33.514 C34.534,33.514 33.478,34.573 33.478,35.875 C33.478,37.179 34.534,38.235 35.838,38.235" id="Fill-145" fill="#161616" mask="url(#mask-26)"></path>
            <path d="M12.239,38.235 C13.541,38.235 14.598,37.179 14.598,35.875 C14.598,34.573 13.541,33.514 12.239,33.514 C10.935,33.514 9.879,34.573 9.879,35.875 C9.879,37.179 10.935,38.235 12.239,38.235" id="Fill-146" fill="#161616" mask="url(#mask-26)"></path>
            <path d="M35.838,14.636 C37.14,14.636 38.198,13.58 38.198,12.276 C38.198,10.974 37.14,9.915 35.838,9.915 C34.534,9.915 33.478,10.974 33.478,12.276 C33.478,13.58 34.534,14.636 35.838,14.636" id="Fill-147" fill="#161616" mask="url(#mask-26)"></path>
            <path d="M12.239,14.636 C13.541,14.636 14.598,13.58 14.598,12.276 C14.598,10.974 13.541,9.915 12.239,9.915 C10.935,9.915 9.879,10.974 9.879,12.276 C9.879,13.58 10.935,14.636 12.239,14.636" id="Fill-148" fill="#161616" mask="url(#mask-26)"></path>
            <path d="M0.439,50.035 C1.741,50.035 2.799,48.978 2.799,47.674 C2.799,46.372 1.741,45.314 0.439,45.314 C-0.865,45.314 -1.921,46.372 -1.921,47.674 C-1.921,48.978 -0.865,50.035 0.439,50.035" id="Fill-149" fill="#161616" mask="url(#mask-26)"></path>
            <path d="M0.439,26.435 C1.741,26.435 2.799,25.379 2.799,24.075 C2.799,22.773 1.741,21.715 0.439,21.715 C-0.865,21.715 -1.921,22.773 -1.921,24.075 C-1.921,25.379 -0.865,26.435 0.439,26.435" id="Fill-150" fill="#161616" mask="url(#mask-26)"></path>
            <path d="M24.039,2.836 C25.341,2.836 26.398,1.78 26.398,0.476 C26.398,-0.826 25.341,-1.884 24.039,-1.884 C22.734,-1.884 21.678,-0.826 21.678,0.476 C21.678,1.78 22.734,2.836 24.039,2.836" id="Fill-151" fill="#161616" mask="url(#mask-26)"></path>
            <path d="M47.638,2.836 C48.94,2.836 49.997,1.78 49.997,0.476 C49.997,-0.826 48.94,-1.884 47.638,-1.884 C46.334,-1.884 45.278,-0.826 45.278,0.476 C45.278,1.78 46.334,2.836 47.638,2.836" id="Fill-152" fill="#161616" mask="url(#mask-26)"></path>
            <path d="M0.439,2.836 C1.741,2.836 2.799,1.78 2.799,0.476 C2.799,-0.826 1.741,-1.884 0.439,-1.884 C-0.865,-1.884 -1.921,-0.826 -1.921,0.476 C-1.921,1.78 -0.865,2.836 0.439,2.836" id="Fill-153" fill="#161616" mask="url(#mask-26)"></path>
        </g>
        <g id="Group-164" transform="translate(724.000000, 61.000000)">
            <mask id="mask-28" fill="white">
                <use xlink:href="#path-27"></use>
            </mask>
            <g id="Clip-156"></g>
            <path d="M24.237,50.035 C25.539,50.035 26.596,48.978 26.596,47.674 C26.596,46.372 25.539,45.314 24.237,45.314 C22.933,45.314 21.877,46.372 21.877,47.674 C21.877,48.978 22.933,50.035 24.237,50.035" id="Fill-155" fill="#161616" mask="url(#mask-28)"></path>
            <path d="M24.237,26.435 C25.539,26.435 26.596,25.379 26.596,24.075 C26.596,22.773 25.539,21.715 24.237,21.715 C22.933,21.715 21.877,22.773 21.877,24.075 C21.877,25.379 22.933,26.435 24.237,26.435" id="Fill-157" fill="#161616" mask="url(#mask-28)"></path>
            <path d="M12.438,38.235 C13.74,38.235 14.797,37.179 14.797,35.875 C14.797,34.573 13.74,33.514 12.438,33.514 C11.133,33.514 10.077,34.573 10.077,35.875 C10.077,37.179 11.133,38.235 12.438,38.235" id="Fill-158" fill="#161616" mask="url(#mask-28)"></path>
            <path d="M12.438,14.636 C13.74,14.636 14.797,13.58 14.797,12.276 C14.797,10.974 13.74,9.915 12.438,9.915 C11.133,9.915 10.077,10.974 10.077,12.276 C10.077,13.58 11.133,14.636 12.438,14.636" id="Fill-159" fill="#161616" mask="url(#mask-28)"></path>
            <path d="M0.638,50.035 C1.94,50.035 2.997,48.978 2.997,47.674 C2.997,46.372 1.94,45.314 0.638,45.314 C-0.666,45.314 -1.722,46.372 -1.722,47.674 C-1.722,48.978 -0.666,50.035 0.638,50.035" id="Fill-160" fill="#161616" mask="url(#mask-28)"></path>
            <path d="M0.638,26.435 C1.94,26.435 2.997,25.379 2.997,24.075 C2.997,22.773 1.94,21.715 0.638,21.715 C-0.666,21.715 -1.722,22.773 -1.722,24.075 C-1.722,25.379 -0.666,26.435 0.638,26.435" id="Fill-161" fill="#161616" mask="url(#mask-28)"></path>
            <path d="M24.237,2.836 C25.539,2.836 26.596,1.78 26.596,0.476 C26.596,-0.826 25.539,-1.884 24.237,-1.884 C22.933,-1.884 21.877,-0.826 21.877,0.476 C21.877,1.78 22.933,2.836 24.237,2.836" id="Fill-162" fill="#161616" mask="url(#mask-28)"></path>
            <path d="M0.638,2.836 C1.94,2.836 2.997,1.78 2.997,0.476 C2.997,-0.826 1.94,-1.884 0.638,-1.884 C-0.666,-1.884 -1.722,-0.826 -1.722,0.476 C-1.722,1.78 -0.666,2.836 0.638,2.836" id="Fill-163" fill="#161616" mask="url(#mask-28)"></path>
        </g>
        <g id="Group-176" transform="translate(592.000000, 14.000000)">
            <mask id="mask-30" fill="white">
                <use xlink:href="#path-29"></use>
            </mask>
            <g id="Clip-166"></g>
            <path d="M14.641,49.836 C15.944,49.836 17.001,48.78 17.001,47.476 C17.001,46.174 15.944,45.116 14.641,45.116 C13.337,45.116 12.281,46.174 12.281,47.476 C12.281,48.78 13.337,49.836 14.641,49.836" id="Fill-165" fill="#161616" mask="url(#mask-30)"></path>
            <path d="M38.241,49.836 C39.543,49.836 40.6,48.78 40.6,47.476 C40.6,46.174 39.543,45.116 38.241,45.116 C36.937,45.116 35.88,46.174 35.88,47.476 C35.88,48.78 36.937,49.836 38.241,49.836" id="Fill-167" fill="#161616" mask="url(#mask-30)"></path>
            <path d="M14.641,26.237 C15.944,26.237 17.001,25.181 17.001,23.877 C17.001,22.574 15.944,21.516 14.641,21.516 C13.337,21.516 12.281,22.574 12.281,23.877 C12.281,25.181 13.337,26.237 14.641,26.237" id="Fill-168" fill="#161616" mask="url(#mask-30)"></path>
            <path d="M38.241,26.237 C39.543,26.237 40.6,25.181 40.6,23.877 C40.6,22.574 39.543,21.516 38.241,21.516 C36.937,21.516 35.88,22.574 35.88,23.877 C35.88,25.181 36.937,26.237 38.241,26.237" id="Fill-169" fill="#161616" mask="url(#mask-30)"></path>
            <path d="M26.441,38.037 C27.743,38.037 28.8,36.98 28.8,35.676 C28.8,34.374 27.743,33.316 26.441,33.316 C25.137,33.316 24.081,34.374 24.081,35.676 C24.081,36.98 25.137,38.037 26.441,38.037" id="Fill-170" fill="#161616" mask="url(#mask-30)"></path>
            <path d="M2.842,38.037 C4.144,38.037 5.201,36.98 5.201,35.676 C5.201,34.374 4.144,33.316 2.842,33.316 C1.538,33.316 0.482,34.374 0.482,35.676 C0.482,36.98 1.538,38.037 2.842,38.037" id="Fill-171" fill="#161616" mask="url(#mask-30)"></path>
            <path d="M26.441,14.437 C27.743,14.437 28.8,13.381 28.8,12.077 C28.8,10.775 27.743,9.717 26.441,9.717 C25.137,9.717 24.081,10.775 24.081,12.077 C24.081,13.381 25.137,14.437 26.441,14.437" id="Fill-172" fill="#161616" mask="url(#mask-30)"></path>
            <path d="M2.842,14.437 C4.144,14.437 5.201,13.381 5.201,12.077 C5.201,10.775 4.144,9.717 2.842,9.717 C1.538,9.717 0.482,10.775 0.482,12.077 C0.482,13.381 1.538,14.437 2.842,14.437" id="Fill-173" fill="#161616" mask="url(#mask-30)"></path>
            <path d="M14.641,2.638 C15.944,2.638 17.001,1.581 17.001,0.277 C17.001,-1.025 15.944,-2.083 14.641,-2.083 C13.337,-2.083 12.281,-1.025 12.281,0.277 C12.281,1.581 13.337,2.638 14.641,2.638" id="Fill-174" fill="#161616" mask="url(#mask-30)"></path>
            <path d="M38.241,2.638 C39.543,2.638 40.6,1.581 40.6,0.277 C40.6,-1.025 39.543,-2.083 38.241,-2.083 C36.937,-2.083 35.88,-1.025 35.88,0.277 C35.88,1.581 36.937,2.638 38.241,2.638" id="Fill-175" fill="#161616" mask="url(#mask-30)"></path>
        </g>
        <g id="Group-191" transform="translate(630.000000, 14.000000)">
            <mask id="mask-32" fill="white">
                <use xlink:href="#path-31"></use>
            </mask>
            <g id="Clip-178"></g>
            <path d="M23.84,49.836 C25.142,49.836 26.199,48.78 26.199,47.476 C26.199,46.174 25.142,45.116 23.84,45.116 C22.536,45.116 21.48,46.174 21.48,47.476 C21.48,48.78 22.536,49.836 23.84,49.836" id="Fill-177" fill="#161616" mask="url(#mask-32)"></path>
            <path d="M47.439,49.836 C48.741,49.836 49.799,48.78 49.799,47.476 C49.799,46.174 48.741,45.116 47.439,45.116 C46.135,45.116 45.079,46.174 45.079,47.476 C45.079,48.78 46.135,49.836 47.439,49.836" id="Fill-179" fill="#161616" mask="url(#mask-32)"></path>
            <path d="M23.84,26.237 C25.142,26.237 26.199,25.181 26.199,23.877 C26.199,22.574 25.142,21.516 23.84,21.516 C22.536,21.516 21.48,22.574 21.48,23.877 C21.48,25.181 22.536,26.237 23.84,26.237" id="Fill-180" fill="#161616" mask="url(#mask-32)"></path>
            <path d="M47.439,26.237 C48.741,26.237 49.799,25.181 49.799,23.877 C49.799,22.574 48.741,21.516 47.439,21.516 C46.135,21.516 45.079,22.574 45.079,23.877 C45.079,25.181 46.135,26.237 47.439,26.237" id="Fill-181" fill="#161616" mask="url(#mask-32)"></path>
            <path d="M35.64,38.037 C36.942,38.037 37.999,36.98 37.999,35.676 C37.999,34.374 36.942,33.316 35.64,33.316 C34.336,33.316 33.279,34.374 33.279,35.676 C33.279,36.98 34.336,38.037 35.64,38.037" id="Fill-182" fill="#161616" mask="url(#mask-32)"></path>
            <path d="M12.04,38.037 C13.342,38.037 14.4,36.98 14.4,35.676 C14.4,34.374 13.342,33.316 12.04,33.316 C10.736,33.316 9.68,34.374 9.68,35.676 C9.68,36.98 10.736,38.037 12.04,38.037" id="Fill-183" fill="#161616" mask="url(#mask-32)"></path>
            <path d="M35.64,14.437 C36.942,14.437 37.999,13.381 37.999,12.077 C37.999,10.775 36.942,9.717 35.64,9.717 C34.336,9.717 33.279,10.775 33.279,12.077 C33.279,13.381 34.336,14.437 35.64,14.437" id="Fill-184" fill="#161616" mask="url(#mask-32)"></path>
            <path d="M12.04,14.437 C13.342,14.437 14.4,13.381 14.4,12.077 C14.4,10.775 13.342,9.717 12.04,9.717 C10.736,9.717 9.68,10.775 9.68,12.077 C9.68,13.381 10.736,14.437 12.04,14.437" id="Fill-185" fill="#161616" mask="url(#mask-32)"></path>
            <path d="M0.241,49.836 C1.543,49.836 2.6,48.78 2.6,47.476 C2.6,46.174 1.543,45.116 0.241,45.116 C-1.063,45.116 -2.12,46.174 -2.12,47.476 C-2.12,48.78 -1.063,49.836 0.241,49.836" id="Fill-186" fill="#161616" mask="url(#mask-32)"></path>
            <path d="M0.241,26.237 C1.543,26.237 2.6,25.181 2.6,23.877 C2.6,22.574 1.543,21.516 0.241,21.516 C-1.063,21.516 -2.12,22.574 -2.12,23.877 C-2.12,25.181 -1.063,26.237 0.241,26.237" id="Fill-187" fill="#161616" mask="url(#mask-32)"></path>
            <path d="M23.84,2.638 C25.142,2.638 26.199,1.581 26.199,0.277 C26.199,-1.025 25.142,-2.083 23.84,-2.083 C22.536,-2.083 21.48,-1.025 21.48,0.277 C21.48,1.581 22.536,2.638 23.84,2.638" id="Fill-188" fill="#161616" mask="url(#mask-32)"></path>
            <path d="M47.439,2.638 C48.741,2.638 49.799,1.581 49.799,0.277 C49.799,-1.025 48.741,-2.083 47.439,-2.083 C46.135,-2.083 45.079,-1.025 45.079,0.277 C45.079,1.581 46.135,2.638 47.439,2.638" id="Fill-189" fill="#161616" mask="url(#mask-32)"></path>
            <path d="M0.241,2.638 C1.543,2.638 2.6,1.581 2.6,0.277 C2.6,-1.025 1.543,-2.083 0.241,-2.083 C-1.063,-2.083 -2.12,-1.025 -2.12,0.277 C-2.12,1.581 -1.063,2.638 0.241,2.638" id="Fill-190" fill="#161616" mask="url(#mask-32)"></path>
        </g>
        <g id="Group-206" transform="translate(677.000000, 14.000000)">
            <mask id="mask-34" fill="white">
                <use xlink:href="#path-33"></use>
            </mask>
            <g id="Clip-193"></g>
            <path d="M24.039,49.836 C25.341,49.836 26.398,48.78 26.398,47.476 C26.398,46.174 25.341,45.116 24.039,45.116 C22.734,45.116 21.678,46.174 21.678,47.476 C21.678,48.78 22.734,49.836 24.039,49.836" id="Fill-192" fill="#161616" mask="url(#mask-34)"></path>
            <path d="M47.638,49.836 C48.94,49.836 49.997,48.78 49.997,47.476 C49.997,46.174 48.94,45.116 47.638,45.116 C46.334,45.116 45.278,46.174 45.278,47.476 C45.278,48.78 46.334,49.836 47.638,49.836" id="Fill-194" fill="#161616" mask="url(#mask-34)"></path>
            <path d="M24.039,26.237 C25.341,26.237 26.398,25.181 26.398,23.877 C26.398,22.574 25.341,21.516 24.039,21.516 C22.735,21.516 21.678,22.574 21.678,23.877 C21.678,25.181 22.735,26.237 24.039,26.237" id="Fill-195" fill="#161616" mask="url(#mask-34)"></path>
            <path d="M47.638,26.237 C48.94,26.237 49.997,25.181 49.997,23.877 C49.997,22.574 48.94,21.516 47.638,21.516 C46.334,21.516 45.278,22.574 45.278,23.877 C45.278,25.181 46.334,26.237 47.638,26.237" id="Fill-196" fill="#161616" mask="url(#mask-34)"></path>
            <path d="M35.838,38.037 C37.14,38.037 38.198,36.98 38.198,35.676 C38.198,34.374 37.14,33.316 35.838,33.316 C34.534,33.316 33.478,34.374 33.478,35.676 C33.478,36.98 34.534,38.037 35.838,38.037" id="Fill-197" fill="#161616" mask="url(#mask-34)"></path>
            <path d="M12.239,38.037 C13.541,38.037 14.598,36.98 14.598,35.676 C14.598,34.374 13.541,33.316 12.239,33.316 C10.935,33.316 9.879,34.374 9.879,35.676 C9.879,36.98 10.935,38.037 12.239,38.037" id="Fill-198" fill="#161616" mask="url(#mask-34)"></path>
            <path d="M35.838,14.437 C37.14,14.437 38.198,13.381 38.198,12.077 C38.198,10.775 37.14,9.717 35.838,9.717 C34.534,9.717 33.478,10.775 33.478,12.077 C33.478,13.381 34.534,14.437 35.838,14.437" id="Fill-199" fill="#161616" mask="url(#mask-34)"></path>
            <path d="M12.239,14.437 C13.541,14.437 14.598,13.381 14.598,12.077 C14.598,10.775 13.541,9.717 12.239,9.717 C10.935,9.717 9.879,10.775 9.879,12.077 C9.879,13.381 10.935,14.437 12.239,14.437" id="Fill-200" fill="#161616" mask="url(#mask-34)"></path>
            <path d="M0.439,49.836 C1.741,49.836 2.799,48.78 2.799,47.476 C2.799,46.174 1.741,45.116 0.439,45.116 C-0.865,45.116 -1.921,46.174 -1.921,47.476 C-1.921,48.78 -0.865,49.836 0.439,49.836" id="Fill-201" fill="#161616" mask="url(#mask-34)"></path>
            <path d="M0.439,26.237 C1.741,26.237 2.799,25.181 2.799,23.877 C2.799,22.574 1.741,21.516 0.439,21.516 C-0.865,21.516 -1.921,22.574 -1.921,23.877 C-1.921,25.181 -0.865,26.237 0.439,26.237" id="Fill-202" fill="#161616" mask="url(#mask-34)"></path>
            <path d="M24.039,2.638 C25.341,2.638 26.398,1.581 26.398,0.277 C26.398,-1.025 25.341,-2.083 24.039,-2.083 C22.735,-2.083 21.678,-1.025 21.678,0.277 C21.678,1.581 22.735,2.638 24.039,2.638" id="Fill-203" fill="#161616" mask="url(#mask-34)"></path>
            <path d="M47.638,2.638 C48.94,2.638 49.997,1.581 49.997,0.277 C49.997,-1.025 48.94,-2.083 47.638,-2.083 C46.334,-2.083 45.278,-1.025 45.278,0.277 C45.278,1.581 46.334,2.638 47.638,2.638" id="Fill-204" fill="#161616" mask="url(#mask-34)"></path>
            <path d="M0.439,2.638 C1.741,2.638 2.799,1.581 2.799,0.277 C2.799,-1.025 1.741,-2.083 0.439,-2.083 C-0.865,-2.083 -1.921,-1.025 -1.921,0.277 C-1.921,1.581 -0.865,2.638 0.439,2.638" id="Fill-205" fill="#161616" mask="url(#mask-34)"></path>
        </g>
        <g id="Group-216" transform="translate(724.000000, 14.000000)">
            <mask id="mask-36" fill="white">
                <use xlink:href="#path-35"></use>
            </mask>
            <g id="Clip-208"></g>
            <path d="M24.237,49.836 C25.539,49.836 26.596,48.78 26.596,47.476 C26.596,46.174 25.539,45.116 24.237,45.116 C22.933,45.116 21.877,46.174 21.877,47.476 C21.877,48.78 22.933,49.836 24.237,49.836" id="Fill-207" fill="#161616" mask="url(#mask-36)"></path>
            <path d="M24.237,26.237 C25.539,26.237 26.596,25.181 26.596,23.877 C26.596,22.574 25.539,21.516 24.237,21.516 C22.933,21.516 21.877,22.574 21.877,23.877 C21.877,25.181 22.933,26.237 24.237,26.237" id="Fill-209" fill="#161616" mask="url(#mask-36)"></path>
            <path d="M12.438,38.037 C13.74,38.037 14.797,36.98 14.797,35.676 C14.797,34.374 13.74,33.316 12.438,33.316 C11.133,33.316 10.077,34.374 10.077,35.676 C10.077,36.98 11.133,38.037 12.438,38.037" id="Fill-210" fill="#161616" mask="url(#mask-36)"></path>
            <path d="M12.438,14.437 C13.74,14.437 14.797,13.381 14.797,12.077 C14.797,10.775 13.74,9.717 12.438,9.717 C11.133,9.717 10.077,10.775 10.077,12.077 C10.077,13.381 11.133,14.437 12.438,14.437" id="Fill-211" fill="#161616" mask="url(#mask-36)"></path>
            <path d="M0.638,49.836 C1.94,49.836 2.997,48.78 2.997,47.476 C2.997,46.174 1.94,45.116 0.638,45.116 C-0.666,45.116 -1.722,46.174 -1.722,47.476 C-1.722,48.78 -0.666,49.836 0.638,49.836" id="Fill-212" fill="#161616" mask="url(#mask-36)"></path>
            <path d="M0.638,26.237 C1.94,26.237 2.997,25.181 2.997,23.877 C2.997,22.574 1.94,21.516 0.638,21.516 C-0.666,21.516 -1.722,22.574 -1.722,23.877 C-1.722,25.181 -0.666,26.237 0.638,26.237" id="Fill-213" fill="#161616" mask="url(#mask-36)"></path>
            <path d="M24.237,2.638 C25.539,2.638 26.596,1.581 26.596,0.277 C26.596,-1.025 25.539,-2.083 24.237,-2.083 C22.933,-2.083 21.877,-1.025 21.877,0.277 C21.877,1.581 22.933,2.638 24.237,2.638" id="Fill-214" fill="#161616" mask="url(#mask-36)"></path>
            <path d="M0.638,2.638 C1.94,2.638 2.997,1.581 2.997,0.277 C2.997,-1.025 1.94,-2.083 0.638,-2.083 C-0.666,-2.083 -1.722,-1.025 -1.722,0.277 C-1.722,1.581 -0.666,2.638 0.638,2.638" id="Fill-215" fill="#161616" mask="url(#mask-36)"></path>
        </g>
        <g id="Group-221" transform="translate(597.000000, 0.000000)">
            <mask id="mask-38" fill="white">
                <use xlink:href="#path-37"></use>
            </mask>
            <g id="Clip-218"></g>
            <path d="M9.641,16.638 C10.944,16.638 12.001,15.581 12.001,14.277 C12.001,12.975 10.944,11.917 9.641,11.917 C8.337,11.917 7.281,12.975 7.281,14.277 C7.281,15.581 8.337,16.638 9.641,16.638" id="Fill-217" fill="#161616" mask="url(#mask-38)"></path>
            <path d="M33.241,16.638 C34.543,16.638 35.6,15.581 35.6,14.277 C35.6,12.975 34.543,11.917 33.241,11.917 C31.937,11.917 30.88,12.975 30.88,14.277 C30.88,15.581 31.937,16.638 33.241,16.638" id="Fill-219" fill="#161616" mask="url(#mask-38)"></path>
            <path d="M21.441,4.838 C22.743,4.838 23.8,3.782 23.8,2.478 C23.8,1.176 22.743,0.117 21.441,0.117 C20.137,0.117 19.081,1.176 19.081,2.478 C19.081,3.782 20.137,4.838 21.441,4.838" id="Fill-220" fill="#161616" mask="url(#mask-38)"></path>
        </g>
        <g id="Group-228" transform="translate(630.000000, 0.000000)">
            <mask id="mask-40" fill="white">
                <use xlink:href="#path-39"></use>
            </mask>
            <g id="Clip-223"></g>
            <path d="M23.84,16.638 C25.142,16.638 26.199,15.581 26.199,14.277 C26.199,12.975 25.142,11.917 23.84,11.917 C22.536,11.917 21.48,12.975 21.48,14.277 C21.48,15.581 22.536,16.638 23.84,16.638" id="Fill-222" fill="#161616" mask="url(#mask-40)"></path>
            <path d="M47.439,16.638 C48.741,16.638 49.799,15.581 49.799,14.277 C49.799,12.975 48.741,11.917 47.439,11.917 C46.135,11.917 45.079,12.975 45.079,14.277 C45.079,15.581 46.135,16.638 47.439,16.638" id="Fill-224" fill="#161616" mask="url(#mask-40)"></path>
            <path d="M35.64,4.838 C36.942,4.838 37.999,3.782 37.999,2.478 C37.999,1.176 36.942,0.117 35.64,0.117 C34.336,0.117 33.279,1.176 33.279,2.478 C33.279,3.782 34.336,4.838 35.64,4.838" id="Fill-225" fill="#161616" mask="url(#mask-40)"></path>
            <path d="M12.04,4.838 C13.342,4.838 14.4,3.782 14.4,2.478 C14.4,1.176 13.342,0.117 12.04,0.117 C10.736,0.117 9.68,1.176 9.68,2.478 C9.68,3.782 10.736,4.838 12.04,4.838" id="Fill-226" fill="#161616" mask="url(#mask-40)"></path>
            <path d="M0.241,16.638 C1.543,16.638 2.6,15.581 2.6,14.277 C2.6,12.975 1.543,11.917 0.241,11.917 C-1.063,11.917 -2.12,12.975 -2.12,14.277 C-2.12,15.581 -1.063,16.638 0.241,16.638" id="Fill-227" fill="#161616" mask="url(#mask-40)"></path>
        </g>
        <g id="Group-235" transform="translate(677.000000, 0.000000)">
            <mask id="mask-42" fill="white">
                <use xlink:href="#path-41"></use>
            </mask>
            <g id="Clip-230"></g>
            <path d="M24.039,16.638 C25.341,16.638 26.398,15.581 26.398,14.277 C26.398,12.975 25.341,11.917 24.039,11.917 C22.735,11.917 21.678,12.975 21.678,14.277 C21.678,15.581 22.735,16.638 24.039,16.638" id="Fill-229" fill="#161616" mask="url(#mask-42)"></path>
            <path d="M47.638,16.638 C48.94,16.638 49.997,15.581 49.997,14.277 C49.997,12.975 48.94,11.917 47.638,11.917 C46.334,11.917 45.278,12.975 45.278,14.277 C45.278,15.581 46.334,16.638 47.638,16.638" id="Fill-231" fill="#161616" mask="url(#mask-42)"></path>
            <path d="M35.838,4.838 C37.14,4.838 38.198,3.782 38.198,2.478 C38.198,1.176 37.14,0.117 35.838,0.117 C34.534,0.117 33.478,1.176 33.478,2.478 C33.478,3.782 34.534,4.838 35.838,4.838" id="Fill-232" fill="#161616" mask="url(#mask-42)"></path>
            <path d="M12.239,4.838 C13.541,4.838 14.598,3.782 14.598,2.478 C14.598,1.176 13.541,0.117 12.239,0.117 C10.935,0.117 9.879,1.176 9.879,2.478 C9.879,3.782 10.935,4.838 12.239,4.838" id="Fill-233" fill="#161616" mask="url(#mask-42)"></path>
            <path d="M0.439,16.638 C1.741,16.638 2.799,15.581 2.799,14.277 C2.799,12.975 1.741,11.917 0.439,11.917 C-0.865,11.917 -1.921,12.975 -1.921,14.277 C-1.921,15.581 -0.865,16.638 0.439,16.638" id="Fill-234" fill="#161616" mask="url(#mask-42)"></path>
        </g>
        <g id="Group-240" transform="translate(724.000000, 0.000000)">
            <mask id="mask-44" fill="white">
                <use xlink:href="#path-43"></use>
            </mask>
            <g id="Clip-237"></g>
            <path d="M24.237,16.638 C25.539,16.638 26.596,15.581 26.596,14.277 C26.596,12.975 25.539,11.917 24.237,11.917 C22.933,11.917 21.877,12.975 21.877,14.277 C21.877,15.581 22.933,16.638 24.237,16.638" id="Fill-236" fill="#161616" mask="url(#mask-44)"></path>
            <path d="M12.438,4.838 C13.74,4.838 14.797,3.782 14.797,2.478 C14.797,1.176 13.74,0.117 12.438,0.117 C11.133,0.117 10.077,1.176 10.077,2.478 C10.077,3.782 11.133,4.838 12.438,4.838" id="Fill-238" fill="#161616" mask="url(#mask-44)"></path>
            <path d="M0.638,16.638 C1.94,16.638 2.997,15.581 2.997,14.277 C2.997,12.975 1.94,11.917 0.638,11.917 C-0.666,11.917 -1.722,12.975 -1.722,14.277 C-1.722,15.581 -0.666,16.638 0.638,16.638" id="Fill-239" fill="#161616" mask="url(#mask-44)"></path>
        </g>
        <g id="Group-243" transform="translate(133.000000, 499.000000)">
            <mask id="mask-46" fill="white">
                <use xlink:href="#path-45"></use>
            </mask>
            <g id="Clip-242"></g>
            <path d="M3.174,1.268 C3.786,0.119 3.351,-1.311 2.201,-1.924 C1.052,-2.537 -0.38,-2.102 -0.992,-0.953 C-1.605,0.198 -1.168,1.628 -0.019,2.241 C1.131,2.854 2.56,2.419 3.174,1.268" id="Fill-241" fill="#161616" mask="url(#mask-46)"></path>
        </g>
        <g id="Group-250" transform="translate(134.000000, 469.000000)">
            <mask id="mask-48" fill="white">
                <use xlink:href="#path-47"></use>
            </mask>
            <g id="Clip-245"></g>
            <path d="M34.1,21.542 C34.712,20.393 34.277,18.963 33.127,18.35 C31.977,17.738 30.546,18.173 29.934,19.322 C29.32,20.473 29.758,21.903 30.907,22.515 C32.057,23.128 33.486,22.693 34.1,21.542" id="Fill-244" fill="#161616" mask="url(#mask-48)"></path>
            <path d="M29.237,5.579 C29.849,4.43 29.415,3 28.264,2.387 C27.115,1.775 25.684,2.21 25.071,3.359 C24.458,4.51 24.895,5.94 26.044,6.552 C27.195,7.165 28.624,6.73 29.237,5.579" id="Fill-246" fill="#161616" mask="url(#mask-48)"></path>
            <path d="M18.137,26.405 C18.749,25.256 18.314,23.826 17.164,23.213 C16.014,22.6 14.583,23.036 13.971,24.185 C13.357,25.335 13.795,26.765 14.944,27.378 C16.094,27.991 17.523,27.556 18.137,26.405" id="Fill-247" fill="#161616" mask="url(#mask-48)"></path>
            <path d="M13.274,10.442 C13.886,9.293 13.452,7.863 12.301,7.25 C11.152,6.637 9.721,7.073 9.108,8.222 C8.495,9.372 8.932,10.802 10.081,11.415 C11.232,12.028 12.661,11.593 13.274,10.442" id="Fill-248" fill="#161616" mask="url(#mask-48)"></path>
            <path d="M2.174,31.268 C2.786,30.119 2.351,28.689 1.201,28.075 C0.052,27.463 -1.38,27.898 -1.992,29.047 C-2.605,30.198 -2.168,31.628 -1.019,32.24 C0.131,32.854 1.56,32.419 2.174,31.268" id="Fill-249" fill="#161616" mask="url(#mask-48)"></path>
        </g>
        <g id="Group-257" transform="translate(80.000000, 476.000000)">
            <mask id="mask-50" fill="white">
                <use xlink:href="#path-49"></use>
            </mask>
            <g id="Clip-252"></g>
            <path d="M56.174,24.268 C56.786,23.119 56.351,21.689 55.201,21.076 C54.052,20.463 52.62,20.898 52.008,22.047 C51.395,23.198 51.832,24.628 52.981,25.24 C54.131,25.854 55.56,25.419 56.174,24.268" id="Fill-251" fill="#161616" mask="url(#mask-50)"></path>
            <path d="M35.348,13.168 C35.961,12.018 35.526,10.589 34.375,9.975 C33.226,9.363 31.795,9.798 31.182,10.947 C30.569,12.098 31.006,13.528 32.155,14.14 C33.306,14.754 34.735,14.318 35.348,13.168" id="Fill-253" fill="#161616" mask="url(#mask-50)"></path>
            <path d="M19.385,18.03 C19.997,16.881 19.563,15.451 18.412,14.838 C17.263,14.226 15.832,14.661 15.219,15.81 C14.606,16.961 15.043,18.391 16.192,19.003 C17.343,19.616 18.772,19.181 19.385,18.03" id="Fill-254" fill="#161616" mask="url(#mask-50)"></path>
            <path d="M3.422,22.893 C4.035,21.744 3.6,20.314 2.449,19.701 C1.3,19.088 -0.131,19.524 -0.744,20.673 C-1.357,21.823 -0.92,23.253 0.229,23.866 C1.38,24.479 2.809,24.044 3.422,22.893" id="Fill-255" fill="#161616" mask="url(#mask-50)"></path>
            <path d="M14.522,2.067 C15.135,0.918 14.7,-0.512 13.549,-1.125 C12.4,-1.737 10.969,-1.302 10.356,-0.153 C9.743,0.998 10.18,2.428 11.329,3.04 C12.48,3.653 13.909,3.218 14.522,2.067" id="Fill-256" fill="#161616" mask="url(#mask-50)"></path>
        </g>
        <g id="Group-270" transform="translate(92.000000, 444.000000)">
            <mask id="mask-52" fill="white">
                <use xlink:href="#path-51"></use>
            </mask>
            <g id="Clip-259"></g>
            <path d="M55.274,35.442 C55.886,34.293 55.452,32.863 54.301,32.25 C53.152,31.637 51.721,32.073 51.108,33.222 C50.495,34.372 50.932,35.802 52.081,36.415 C53.232,37.028 54.661,36.593 55.274,35.442" id="Fill-258" fill="#161616" mask="url(#mask-52)"></path>
            <path d="M34.448,24.342 C35.061,23.193 34.626,21.763 33.475,21.15 C32.326,20.537 30.895,20.972 30.282,22.121 C29.669,23.272 30.106,24.702 31.255,25.315 C32.406,25.928 33.835,25.493 34.448,24.342" id="Fill-260" fill="#161616" mask="url(#mask-52)"></path>
            <path d="M45.549,3.516 C46.161,2.367 45.726,0.937 44.575,0.324 C43.426,-0.289 41.995,0.147 41.383,1.296 C40.769,2.446 41.206,3.876 42.355,4.489 C43.506,5.102 44.935,4.667 45.549,3.516" id="Fill-261" fill="#161616" mask="url(#mask-52)"></path>
            <path d="M50.411,19.479 C51.024,18.33 50.589,16.9 49.438,16.287 C48.289,15.674 46.858,16.11 46.245,17.259 C45.632,18.409 46.069,19.839 47.218,20.452 C48.369,21.065 49.798,20.63 50.411,19.479" id="Fill-262" fill="#161616" mask="url(#mask-52)"></path>
            <path d="M39.311,40.305 C39.923,39.156 39.489,37.726 38.338,37.113 C37.189,36.5 35.758,36.935 35.145,38.084 C34.532,39.235 34.969,40.665 36.118,41.277 C37.269,41.891 38.698,41.456 39.311,40.305" id="Fill-263" fill="#161616" mask="url(#mask-52)"></path>
            <path d="M29.586,8.379 C30.198,7.23 29.763,5.8 28.612,5.187 C27.463,4.574 26.032,5.009 25.42,6.158 C24.806,7.309 25.243,8.739 26.392,9.352 C27.543,9.965 28.972,9.53 29.586,8.379" id="Fill-264" fill="#161616" mask="url(#mask-52)"></path>
            <path d="M18.485,29.205 C19.098,28.055 18.663,26.626 17.512,26.012 C16.363,25.4 14.932,25.835 14.319,26.984 C13.706,28.135 14.143,29.565 15.292,30.177 C16.443,30.791 17.872,30.355 18.485,29.205" id="Fill-265" fill="#161616" mask="url(#mask-52)"></path>
            <path d="M44.174,56.268 C44.786,55.119 44.351,53.689 43.201,53.076 C42.052,52.463 40.62,52.898 40.008,54.047 C39.395,55.198 39.832,56.628 40.981,57.24 C42.131,57.854 43.56,57.419 44.174,56.268" id="Fill-266" fill="#161616" mask="url(#mask-52)"></path>
            <path d="M23.348,45.168 C23.961,44.018 23.526,42.589 22.375,41.975 C21.226,41.363 19.795,41.798 19.182,42.947 C18.569,44.098 19.006,45.528 20.155,46.14 C21.306,46.754 22.735,46.318 23.348,45.168" id="Fill-267" fill="#161616" mask="url(#mask-52)"></path>
            <path d="M13.623,13.242 C14.235,12.092 13.8,10.663 12.649,10.049 C11.5,9.437 10.069,9.872 9.457,11.021 C8.843,12.172 9.28,13.602 10.429,14.214 C11.58,14.828 13.009,14.392 13.623,13.242" id="Fill-268" fill="#161616" mask="url(#mask-52)"></path>
            <path d="M2.522,34.067 C3.135,32.918 2.7,31.488 1.549,30.875 C0.4,30.263 -1.031,30.698 -1.644,31.847 C-2.257,32.998 -1.82,34.428 -0.671,35.04 C0.48,35.653 1.909,35.218 2.522,34.067" id="Fill-269" fill="#161616" mask="url(#mask-52)"></path>
        </g>
        <g id="Group-273" transform="translate(26.000000, 496.000000)">
            <mask id="mask-54" fill="white">
                <use xlink:href="#path-53"></use>
            </mask>
            <g id="Clip-272"></g>
            <path d="M4.67,1.518 C5.283,0.369 4.848,-1.061 3.697,-1.674 C2.548,-2.287 1.117,-1.851 0.505,-0.702 C-0.109,0.449 0.328,1.878 1.477,2.491 C2.628,3.104 4.057,2.669 4.67,1.518" id="Fill-271" fill="#161616" mask="url(#mask-54)"></path>
        </g>
        <g id="Group-286" transform="translate(28.000000, 454.000000)">
            <mask id="mask-56" fill="white">
                <use xlink:href="#path-55"></use>
            </mask>
            <g id="Clip-275"></g>
            <path d="M55.422,44.893 C56.035,43.744 55.6,42.314 54.449,41.701 C53.3,41.088 51.869,41.524 51.256,42.673 C50.643,43.823 51.08,45.253 52.229,45.866 C53.38,46.479 54.809,46.044 55.422,44.893" id="Fill-274" fill="#161616" mask="url(#mask-56)"></path>
            <path d="M66.522,24.067 C67.135,22.918 66.7,21.488 65.549,20.875 C64.4,20.263 62.969,20.698 62.356,21.847 C61.743,22.998 62.18,24.428 63.329,25.04 C64.48,25.653 65.909,25.218 66.522,24.067" id="Fill-276" fill="#161616" mask="url(#mask-56)"></path>
            <path d="M34.596,33.793 C35.209,32.644 34.774,31.214 33.623,30.6 C32.474,29.988 31.043,30.423 30.431,31.572 C29.817,32.723 30.254,34.153 31.403,34.765 C32.554,35.379 33.983,34.944 34.596,33.793" id="Fill-277" fill="#161616" mask="url(#mask-56)"></path>
            <path d="M45.697,12.967 C46.309,11.818 45.874,10.388 44.724,9.775 C43.574,9.162 42.143,9.598 41.531,10.747 C40.917,11.897 41.354,13.327 42.504,13.94 C43.654,14.553 45.083,14.118 45.697,12.967" id="Fill-278" fill="#161616" mask="url(#mask-56)"></path>
            <path d="M50.559,28.93 C51.172,27.781 50.737,26.351 49.586,25.738 C48.437,25.125 47.006,25.561 46.393,26.71 C45.78,27.86 46.217,29.29 47.366,29.903 C48.517,30.516 49.946,30.081 50.559,28.93" id="Fill-279" fill="#161616" mask="url(#mask-56)"></path>
            <path d="M29.734,17.83 C30.346,16.681 29.911,15.251 28.76,14.638 C27.611,14.025 26.18,14.46 25.568,15.609 C24.954,16.76 25.391,18.19 26.54,18.802 C27.691,19.416 29.12,18.981 29.734,17.83" id="Fill-281" fill="#161616" mask="url(#mask-56)"></path>
            <path d="M18.633,38.655 C19.246,37.506 18.811,36.077 17.66,35.463 C16.511,34.851 15.08,35.286 14.467,36.435 C13.854,37.586 14.291,39.016 15.44,39.628 C16.591,40.242 18.02,39.806 18.633,38.655" id="Fill-282" fill="#161616" mask="url(#mask-56)"></path>
            <path d="M13.771,22.693 C14.383,21.543 13.948,20.114 12.798,19.5 C11.648,18.888 10.217,19.323 9.605,20.472 C8.991,21.623 9.428,23.053 10.578,23.665 C11.728,24.279 13.157,23.843 13.771,22.693" id="Fill-283" fill="#161616" mask="url(#mask-56)"></path>
            <path d="M24.871,1.867 C25.483,0.718 25.048,-0.712 23.898,-1.325 C22.749,-1.938 21.318,-1.503 20.705,-0.354 C20.092,0.797 20.529,2.227 21.678,2.84 C22.829,3.453 24.258,3.018 24.871,1.867" id="Fill-284" fill="#161616" mask="url(#mask-56)"></path>
            <path d="M2.67,43.518 C3.283,42.369 2.848,40.939 1.697,40.326 C0.548,39.713 -0.883,40.149 -1.495,41.298 C-2.109,42.448 -1.672,43.878 -0.523,44.491 C0.628,45.104 2.057,44.669 2.67,43.518" id="Fill-285" fill="#161616" mask="url(#mask-56)"></path>
        </g>
        <g id="Group-296" transform="translate(50.000000, 438.000000)">
            <mask id="mask-58" fill="white">
                <use xlink:href="#path-57"></use>
            </mask>
            <g id="Clip-288"></g>
            <path d="M55.623,19.242 C56.235,18.092 55.8,16.663 54.649,16.049 C53.5,15.437 52.069,15.872 51.457,17.021 C50.843,18.172 51.28,19.602 52.429,20.214 C53.58,20.828 55.009,20.392 55.623,19.242" id="Fill-287" fill="#161616" mask="url(#mask-58)"></path>
            <path d="M34.797,8.141 C35.409,6.992 34.974,5.562 33.824,4.949 C32.675,4.337 31.243,4.772 30.631,5.921 C30.018,7.072 30.455,8.502 31.604,9.114 C32.754,9.727 34.184,9.292 34.797,8.141" id="Fill-289" fill="#161616" mask="url(#mask-58)"></path>
            <path d="M50.76,3.279 C51.372,2.129 50.937,0.7 49.787,0.086 C48.638,-0.526 47.206,-0.091 46.594,1.058 C45.981,2.209 46.418,3.639 47.567,4.251 C48.717,4.865 50.146,4.429 50.76,3.279" id="Fill-290" fill="#161616" mask="url(#mask-58)"></path>
            <path d="M39.66,24.104 C40.272,22.955 39.837,21.525 38.686,20.912 C37.537,20.3 36.106,20.735 35.494,21.884 C34.88,23.035 35.317,24.465 36.466,25.077 C37.617,25.69 39.046,25.255 39.66,24.104" id="Fill-291" fill="#161616" mask="url(#mask-58)"></path>
            <path d="M18.834,13.004 C19.446,11.855 19.011,10.425 17.861,9.812 C16.712,9.199 15.28,9.635 14.668,10.784 C14.055,11.934 14.492,13.364 15.641,13.977 C16.792,14.59 18.22,14.155 18.834,13.004" id="Fill-292" fill="#161616" mask="url(#mask-58)"></path>
            <path d="M44.522,40.067 C45.135,38.918 44.7,37.488 43.549,36.875 C42.4,36.263 40.969,36.698 40.356,37.847 C39.743,38.998 40.18,40.427 41.329,41.04 C42.48,41.653 43.909,41.218 44.522,40.067" id="Fill-293" fill="#161616" mask="url(#mask-58)"></path>
            <path d="M23.697,28.967 C24.309,27.818 23.874,26.388 22.724,25.775 C21.574,25.162 20.143,25.598 19.531,26.747 C18.917,27.897 19.354,29.327 20.504,29.94 C21.654,30.553 23.083,30.118 23.697,28.967" id="Fill-294" fill="#161616" mask="url(#mask-58)"></path>
            <path d="M2.871,17.867 C3.483,16.718 3.048,15.288 1.898,14.674 C0.749,14.062 -0.682,14.497 -1.295,15.646 C-1.908,16.797 -1.471,18.227 -0.322,18.839 C0.829,19.453 2.258,19.018 2.871,17.867" id="Fill-295" fill="#161616" mask="url(#mask-58)"></path>
        </g>
        <g id="Group-301" transform="translate(0.000000, 481.000000)">
            <mask id="mask-60" fill="white">
                <use xlink:href="#path-59"></use>
            </mask>
            <g id="Clip-298"></g>
            <path d="M30.67,16.518 C31.283,15.369 30.848,13.939 29.697,13.326 C28.548,12.713 27.117,13.149 26.505,14.298 C25.891,15.449 26.328,16.878 27.477,17.491 C28.628,18.104 30.057,17.669 30.67,16.518" id="Fill-297" fill="#161616" mask="url(#mask-60)"></path>
            <path d="M9.845,5.418 C10.457,4.269 10.022,2.839 8.872,2.226 C7.722,1.613 6.291,2.049 5.679,3.198 C5.066,4.348 5.502,5.778 6.652,6.391 C7.802,7.004 9.231,6.569 9.845,5.418" id="Fill-299" fill="#161616" mask="url(#mask-60)"></path>
            <path d="M14.707,21.381 C15.32,20.232 14.885,18.802 13.734,18.189 C12.585,17.576 11.154,18.011 10.542,19.161 C9.928,20.311 10.365,21.741 11.514,22.354 C12.665,22.967 14.094,22.532 14.707,21.381" id="Fill-300" fill="#161616" mask="url(#mask-60)"></path>
        </g>
        <g id="Group-314" transform="translate(0.000000, 446.000000)">
            <mask id="mask-62" fill="white">
                <use xlink:href="#path-61"></use>
            </mask>
            <g id="Clip-303"></g>
            <path d="M41.771,30.693 C42.383,29.543 41.948,28.114 40.798,27.5 C39.648,26.888 38.217,27.323 37.605,28.472 C36.991,29.623 37.428,31.053 38.578,31.665 C39.728,32.279 41.157,31.843 41.771,30.693" id="Fill-302" fill="#161616" mask="url(#mask-62)"></path>
            <path d="M52.871,9.867 C53.483,8.718 53.048,7.288 51.898,6.675 C50.749,6.062 49.318,6.497 48.705,7.646 C48.092,8.797 48.529,10.227 49.678,10.84 C50.829,11.453 52.258,11.018 52.871,9.867" id="Fill-304" fill="#161616" mask="url(#mask-62)"></path>
            <path d="M20.945,19.592 C21.557,18.443 21.123,17.013 19.972,16.4 C18.823,15.788 17.392,16.223 16.779,17.372 C16.166,18.523 16.603,19.953 17.752,20.565 C18.903,21.178 20.332,20.743 20.945,19.592" id="Fill-305" fill="#161616" mask="url(#mask-62)"></path>
            <path d="M32.045,-1.233 C32.658,-2.383 32.223,-3.812 31.072,-4.426 C29.923,-5.038 28.492,-4.603 27.879,-3.454 C27.266,-2.303 27.703,-0.873 28.852,-0.261 C30.003,0.353 31.432,-0.083 32.045,-1.233" id="Fill-306" fill="#161616" mask="url(#mask-62)"></path>
            <path d="M36.908,14.73 C37.52,13.581 37.086,12.151 35.935,11.537 C34.786,10.925 33.354,11.36 32.742,12.509 C32.129,13.66 32.566,15.09 33.715,15.702 C34.866,16.316 36.294,15.88 36.908,14.73" id="Fill-307" fill="#161616" mask="url(#mask-62)"></path>
            <path d="M25.808,35.555 C26.42,34.406 25.985,32.976 24.834,32.363 C23.685,31.751 22.254,32.186 21.642,33.335 C21.029,34.486 21.466,35.916 22.615,36.528 C23.765,37.141 25.194,36.706 25.808,35.555" id="Fill-308" fill="#161616" mask="url(#mask-62)"></path>
            <path d="M16.082,3.629 C16.695,2.48 16.26,1.05 15.109,0.437 C13.96,-0.175 12.529,0.26 11.916,1.409 C11.303,2.56 11.74,3.99 12.889,4.602 C14.04,5.215 15.469,4.78 16.082,3.629" id="Fill-309" fill="#161616" mask="url(#mask-62)"></path>
            <path d="M4.982,24.455 C5.594,23.306 5.16,21.876 4.009,21.263 C2.86,20.65 1.428,21.086 0.816,22.234 C0.203,23.385 0.64,24.815 1.789,25.428 C2.94,26.041 4.369,25.606 4.982,24.455" id="Fill-310" fill="#161616" mask="url(#mask-62)"></path>
            <path d="M30.67,51.518 C31.283,50.369 30.848,48.939 29.697,48.326 C28.548,47.713 27.117,48.149 26.505,49.298 C25.891,50.448 26.328,51.878 27.477,52.491 C28.628,53.104 30.057,52.669 30.67,51.518" id="Fill-311" fill="#161616" mask="url(#mask-62)"></path>
            <path d="M9.845,40.418 C10.457,39.269 10.022,37.839 8.872,37.226 C7.722,36.613 6.291,37.049 5.679,38.198 C5.066,39.348 5.502,40.778 6.652,41.391 C7.802,42.004 9.231,41.569 9.845,40.418" id="Fill-312" fill="#161616" mask="url(#mask-62)"></path>
            <path d="M0.119,8.492 C0.732,7.343 0.297,5.913 -0.854,5.3 C-2.003,4.687 -3.434,5.123 -4.047,6.272 C-4.66,7.422 -4.223,8.852 -3.074,9.465 C-1.923,10.078 -0.494,9.643 0.119,8.492" id="Fill-313" fill="#161616" mask="url(#mask-62)"></path>
        </g>
        <g id="Group-318" transform="translate(34.000000, 439.000000)">
            <mask id="mask-64" fill="white">
                <use xlink:href="#path-63"></use>
            </mask>
            <g id="Clip-316"></g>
            <path d="M14.008,0.904 C14.621,-0.245 14.186,-1.675 13.035,-2.288 C11.886,-2.901 10.455,-2.466 9.842,-1.317 C9.229,-0.166 9.666,1.264 10.815,1.876 C11.966,2.49 13.395,2.055 14.008,0.904" id="Fill-315" fill="#161616" mask="url(#mask-64)"></path>
            <path d="M18.871,16.867 C19.483,15.718 19.048,14.288 17.898,13.675 C16.749,13.062 15.318,13.497 14.705,14.646 C14.092,15.797 14.529,17.227 15.678,17.839 C16.829,18.453 18.258,18.018 18.871,16.867" id="Fill-317" fill="#161616" mask="url(#mask-64)"></path>
        </g>
        <path d="M561.036,105.139 C561.037,89.503 567.37,75.359 577.616,65.112 C587.864,54.866 602.007,48.532 617.643,48.532 C633.278,48.532 647.422,54.866 657.67,65.112 C667.916,75.359 674.249,89.503 674.25,105.139 C674.249,120.774 667.916,134.918 657.67,145.166 C647.422,155.412 633.278,161.745 617.643,161.746 L617.643,164.246 C650.287,164.246 676.75,137.783 676.75,105.139 C676.75,72.494 650.287,46.032 617.643,46.032 C584.999,46.032 558.536,72.494 558.536,105.139 L561.036,105.139" id="Fill-319" fill="#E0574D"></path>
        <g id="Group-323" transform="translate(185.000000, 67.000000)">
            <mask id="mask-66" fill="white">
                <use xlink:href="#path-65"></use>
            </mask>
            <g id="Clip-321"></g>
            <polyline id="Fill-320" fill="#000105" mask="url(#mask-66)" points="28.904 7.499 21.589 14.813 29.031 22.255 22.054 29.231 14.613 21.79 7.298 29.105 0.66 22.466 7.975 15.152 0.491 7.668 7.467 0.692 14.951 8.175 22.266 0.861 28.904 7.499"></polyline>
            <polyline id="Fill-322" fill="#000105" mask="url(#mask-66)" points="579.144 161.268 571.828 168.582 579.27 176.023 572.293 183 564.853 175.559 557.537 182.873 550.899 176.235 558.214 168.92 550.73 161.437 557.707 154.46 565.19 161.944 572.505 154.629 579.144 161.268"></polyline>
        </g>
        <polyline id="Fill-324" fill="#E0564C" points="42.607 381.725 30.095 369.214 42.607 369.214 42.607 381.725"></polyline>
        <polyline id="Fill-325" fill="#000105" points="42.607 383.564 28.257 369.214 30.095 369.214 42.607 381.725 42.607 383.564"></polyline>
        <path d="M42.607,500 L14.613,500 C14.402,499.669 14.105,499.387 13.734,499.189 C13.381,499.001 13.001,498.911 12.627,498.911 C11.841,498.911 11.079,499.304 10.635,500 L0,500 L0,369.214 L28.257,369.214 L42.607,383.564 L42.607,490.206 C42.557,490.279 42.51,490.355 42.467,490.435 C42.038,491.24 42.124,492.182 42.607,492.885 L42.607,500 M27.477,498.491 L27.477,498.491 C27.831,498.68 28.211,498.769 28.586,498.769 C29.43,498.769 30.246,498.315 30.67,497.518 C31.283,496.369 30.848,494.939 29.697,494.326 C29.344,494.138 28.964,494.048 28.59,494.048 C27.746,494.048 26.929,494.502 26.505,495.298 C25.891,496.449 26.328,497.878 27.477,498.491 M5.679,484.198 L5.679,484.198 C5.066,485.348 5.502,486.778 6.652,487.391 C7.005,487.579 7.386,487.669 7.76,487.669 C8.604,487.669 9.42,487.215 9.845,486.418 C10.457,485.269 10.022,483.839 8.872,483.226 C8.518,483.038 8.139,482.948 7.764,482.948 C6.92,482.948 6.103,483.402 5.679,484.198 M23.727,478.086 C22.883,478.086 22.066,478.539 21.642,479.335 C21.029,480.486 21.466,481.916 22.615,482.528 C22.968,482.716 23.349,482.806 23.723,482.806 C24.567,482.806 25.383,482.352 25.808,481.555 C26.42,480.406 25.985,478.976 24.834,478.363 C24.481,478.175 24.101,478.086 23.727,478.086 M38.578,477.665 L38.578,477.665 C38.931,477.854 39.312,477.943 39.686,477.943 C40.53,477.943 41.346,477.489 41.771,476.693 C42.383,475.543 41.948,474.114 40.798,473.5 C40.797,473.5 40.797,473.5 40.797,473.5 C40.444,473.312 40.064,473.223 39.69,473.223 C38.846,473.223 38.029,473.676 37.605,474.472 C36.991,475.623 37.428,477.053 38.578,477.665 L38.577,477.665 M2.901,466.985 C2.057,466.985 1.24,467.439 0.816,468.234 C0.203,469.385 0.64,470.815 1.789,471.428 C2.143,471.616 2.523,471.706 2.897,471.706 C3.741,471.706 4.557,471.252 4.982,470.455 C5.594,469.306 5.16,467.876 4.009,467.263 C3.656,467.075 3.276,466.985 2.901,466.985 M18.864,462.123 C18.02,462.123 17.203,462.576 16.779,463.372 C16.166,464.523 16.603,465.953 17.752,466.565 C18.106,466.754 18.486,466.843 18.861,466.843 C19.704,466.843 20.52,466.389 20.945,465.592 C21.557,464.443 21.123,463.013 19.972,462.4 C19.619,462.212 19.239,462.123 18.864,462.123 M34.827,457.26 C33.983,457.26 33.166,457.713 32.742,458.509 C32.129,459.66 32.566,461.09 33.715,461.702 C34.069,461.891 34.449,461.98 34.823,461.98 C35.667,461.98 36.483,461.527 36.908,460.73 C37.52,459.581 37.086,458.151 35.935,457.537 C35.582,457.349 35.202,457.26 34.827,457.26" id="Fill-326" fill="#E0564C"></path>
        <path d="M28.586,498.769 C28.211,498.769 27.831,498.68 27.477,498.491 L28.587,496.408 L30.67,497.518 C30.246,498.315 29.43,498.769 28.586,498.769" id="Fill-327" fill="#130205"></path>
        <path d="M42.607,492.885 C42.124,492.182 42.038,491.24 42.467,490.435 C42.51,490.355 42.557,490.279 42.607,490.206 L42.607,492.885" id="Fill-328" fill="#130205"></path>
        <path d="M39.686,477.943 C39.312,477.943 38.931,477.854 38.578,477.665 L40.797,473.5 C40.797,473.5 40.797,473.5 40.798,473.5 C41.948,474.114 42.383,475.543 41.771,476.693 C41.346,477.489 40.53,477.943 39.686,477.943" id="Fill-329" fill="#130205"></path>
        <path d="M30.67,497.518 L28.587,496.408 L29.697,494.326 C30.848,494.939 31.283,496.369 30.67,497.518" id="Fill-330" fill="#130205"></path>
        <path d="M27.477,498.491 C26.328,497.878 25.891,496.449 26.505,495.298 L28.587,496.408 L27.477,498.491" id="Fill-331" fill="#130205"></path>
        <path d="M7.76,487.669 C7.386,487.669 7.005,487.579 6.652,487.391 C5.502,486.778 5.066,485.348 5.679,484.198 L9.845,486.418 C9.42,487.215 8.604,487.669 7.76,487.669" id="Fill-332" fill="#130205"></path>
        <path d="M14.613,500 L10.635,500 C11.079,499.304 11.841,498.911 12.627,498.911 C13.001,498.911 13.381,499.001 13.734,499.189 C14.105,499.387 14.402,499.669 14.613,500" id="Fill-333" fill="#130205"></path>
        <path d="M38.578,477.665 C37.428,477.053 36.991,475.623 37.605,474.472 C38.029,473.676 38.846,473.223 39.69,473.223 C40.064,473.223 40.444,473.312 40.797,473.5 L38.577,477.665" id="Fill-334" fill="#130205"></path>
        <path d="M18.861,466.843 C18.486,466.843 18.106,466.754 17.752,466.565 C16.603,465.953 16.166,464.523 16.779,463.372 C17.203,462.576 18.02,462.123 18.864,462.123 C19.239,462.123 19.619,462.212 19.972,462.4 C21.123,463.013 21.557,464.443 20.945,465.592 C20.52,466.389 19.704,466.843 18.861,466.843" id="Fill-335" fill="#130205"></path>
        <path d="M34.823,461.98 C34.449,461.98 34.069,461.891 33.715,461.702 C32.566,461.09 32.129,459.66 32.742,458.509 C33.166,457.713 33.983,457.26 34.827,457.26 C35.202,457.26 35.582,457.349 35.935,457.537 C37.086,458.151 37.52,459.581 36.908,460.73 C36.483,461.527 35.667,461.98 34.823,461.98" id="Fill-336" fill="#130205"></path>
        <path d="M23.723,482.806 C23.349,482.806 22.968,482.716 22.615,482.528 C21.466,481.916 21.029,480.486 21.642,479.335 C22.066,478.539 22.883,478.086 23.727,478.086 C24.101,478.086 24.481,478.175 24.834,478.363 C25.985,478.976 26.42,480.406 25.808,481.555 C25.383,482.352 24.567,482.806 23.723,482.806" id="Fill-337" fill="#130205"></path>
        <path d="M2.897,471.706 C2.523,471.706 2.143,471.616 1.789,471.428 C0.64,470.815 0.203,469.385 0.816,468.234 C1.24,467.439 2.057,466.985 2.901,466.985 C3.276,466.985 3.656,467.075 4.009,467.263 C5.16,467.876 5.594,469.306 4.982,470.455 C4.557,471.252 3.741,471.706 2.897,471.706" id="Fill-338" fill="#130205"></path>
        <path d="M28.587,496.408 L28.587,496.408 L26.505,495.298 C26.929,494.502 27.746,494.048 28.59,494.048 C28.964,494.048 29.344,494.138 29.697,494.326 L28.587,496.408" id="Fill-339" fill="#130205"></path>
        <path d="M9.845,486.418 L9.845,486.418 L5.679,484.198 C6.103,483.402 6.92,482.948 7.764,482.948 C8.139,482.948 8.518,483.038 8.872,483.226 C10.022,483.839 10.457,485.269 9.845,486.418" id="Fill-340" fill="#130205"></path>
        <path d="M318.585,427.808 C318.584,436.406 315.103,444.179 309.469,449.815 C303.833,455.449 296.06,458.93 287.462,458.931 C278.864,458.93 271.091,455.449 265.455,449.815 C259.821,444.179 256.339,436.406 256.339,427.808 C256.339,419.209 259.821,411.437 265.455,405.8 C271.091,400.166 278.864,396.685 287.462,396.685 L287.462,394.185 C268.892,394.185 253.84,409.238 253.839,427.808 C253.84,446.377 268.892,461.43 287.462,461.431 C306.032,461.43 321.084,446.377 321.085,427.808 L318.585,427.808" id="Fill-341" fill="#E0574D"></path>
        <polyline id="Fill-342" fill="#303332" points="197.4 446.888 212.611 431.676 211.551 430.615 196.339 445.827"></polyline>
        <polyline id="Fill-343" fill="#303332" points="210.661 446.888 225.873 431.676 224.812 430.615 209.6 445.827"></polyline>
        <polyline id="Fill-344" fill="#303332" points="223.922 446.888 239.134 431.676 238.073 430.615 222.861 445.827"></polyline>
        <polyline id="Fill-345" fill="#303332" points="237.183 446.888 252.395 431.676 251.334 430.615 236.122 445.827"></polyline>
        <polyline id="Fill-346" fill="#303332" points="250.444 446.888 265.656 431.676 264.595 430.615 249.384 445.827"></polyline>
        <polyline id="Fill-347" fill="#303332" points="263.705 446.888 278.917 431.676 277.856 430.615 262.644 445.827"></polyline>
        <g id="Group-358" transform="translate(0.000000, 230.000000)">
            <mask id="mask-68" fill="white">
                <use xlink:href="#path-67"></use>
            </mask>
            <g id="Clip-349"></g>
            <polyline id="Fill-348" fill="#303332" mask="url(#mask-68)" points="276.966 216.888 292.178 201.676 291.118 200.615 275.906 215.827"></polyline>
            <path d="M805.071,279.422 L804.071,279.422 C804.071,301.659 795.061,321.782 780.488,336.356 C765.914,350.929 745.792,359.939 723.554,359.939 C701.316,359.939 681.193,350.929 666.619,336.356 C652.047,321.782 643.037,301.659 643.036,279.422 C643.037,257.184 652.047,237.061 666.619,222.487 C681.193,207.915 701.316,198.905 723.554,198.904 C745.791,198.905 765.914,207.915 780.488,222.487 C795.061,237.061 804.071,257.184 804.071,279.422 L806.071,279.422 C806.071,233.848 769.128,196.904 723.554,196.904 C677.981,196.904 641.036,233.848 641.036,279.422 C641.036,324.995 677.98,361.939 723.554,361.939 C769.128,361.939 806.071,324.995 806.071,279.422 L805.071,279.422" id="Fill-350" fill="#E0574D" mask="url(#mask-68)"></path>
            <path d="M723.555,389.118 L723.555,388.118 C693.585,388.118 666.416,375.93 646.73,356.246 C627.046,336.56 614.858,309.391 614.857,279.422 C614.858,249.452 627.046,222.284 646.73,202.598 C666.416,182.913 693.585,170.725 723.555,170.725 C753.524,170.725 780.692,182.913 800.378,202.598 C820.062,222.284 832.25,249.452 832.25,279.422 C832.25,309.391 820.062,336.56 800.378,356.246 C780.692,375.93 753.524,388.118 723.555,388.118 L723.555,390.118 C784.595,390.118 834.25,340.463 834.25,279.422 C834.25,218.38 784.595,168.725 723.555,168.725 C662.513,168.725 612.857,218.38 612.857,279.422 C612.857,340.463 662.513,390.118 723.555,390.118 L723.555,389.118" id="Fill-351" fill="#E0574D" mask="url(#mask-68)"></path>
            <path d="M723.555,375.029 L723.555,374.029 C697.469,374.029 673.823,363.421 656.689,346.288 C639.555,329.153 628.948,305.507 628.947,279.422 C628.948,253.336 639.555,229.69 656.689,212.556 C673.823,195.423 697.469,184.815 723.555,184.814 C749.639,184.815 773.285,195.423 790.419,212.556 C807.552,229.69 818.16,253.336 818.16,279.422 C818.16,305.507 807.552,329.153 790.419,346.288 C773.285,363.421 749.639,374.029 723.555,374.029 L723.555,376.029 C776.826,376.027 820.158,332.695 820.16,279.422 C820.158,226.149 776.826,182.816 723.555,182.814 C670.282,182.816 626.949,226.149 626.947,279.422 C626.949,332.695 670.282,376.027 723.555,376.029 L723.555,375.029" id="Fill-352" fill="#E0574D" mask="url(#mask-68)"></path>
            <path d="M805.071,279.422 L804.071,279.422 C804.071,301.659 795.061,321.782 780.488,336.356 C765.914,350.929 745.792,359.939 723.554,359.939 C701.316,359.939 681.193,350.929 666.619,336.356 C652.047,321.782 643.037,301.659 643.036,279.422 C643.037,257.184 652.047,237.061 666.619,222.487 C681.193,207.915 701.316,198.905 723.554,198.904 C745.791,198.905 765.914,207.915 780.488,222.487 C795.061,237.061 804.071,257.184 804.071,279.422 L806.071,279.422 C806.071,233.848 769.128,196.904 723.554,196.904 C677.981,196.904 641.036,233.848 641.036,279.422 C641.036,324.995 677.98,361.939 723.554,361.939 C769.128,361.939 806.071,324.995 806.071,279.422 L805.071,279.422" id="Fill-353" fill="#E0574D" mask="url(#mask-68)"></path>
            <path d="M789.953,279.422 L788.953,279.422 C788.953,297.484 781.635,313.828 769.798,325.666 C757.96,337.503 741.617,344.821 723.554,344.821 C705.491,344.821 689.148,337.503 677.31,325.666 C665.473,313.828 658.155,297.484 658.154,279.422 C658.155,261.359 665.473,245.015 677.31,233.177 C689.148,221.341 705.491,214.023 723.554,214.022 C741.617,214.023 757.96,221.341 769.798,233.177 C781.635,245.015 788.953,261.359 788.953,279.422 L790.953,279.422 C790.953,242.197 760.778,212.022 723.554,212.022 C686.33,212.022 656.154,242.197 656.154,279.422 C656.154,316.645 686.33,346.821 723.554,346.821 C760.778,346.821 790.953,316.645 790.953,279.422 L789.953,279.422" id="Fill-354" fill="#E0574D" mask="url(#mask-68)"></path>
            <path d="M776.104,279.422 L775.104,279.422 C775.104,293.66 769.336,306.541 760.006,315.874 C750.674,325.204 737.792,330.972 723.554,330.973 C709.315,330.972 696.434,325.204 687.102,315.874 C677.771,306.541 672.003,293.66 672.003,279.422 C672.003,265.183 677.771,252.302 687.102,242.97 C696.434,233.639 709.315,227.872 723.554,227.871 C737.792,227.872 750.674,233.639 760.006,242.97 C769.336,252.302 775.104,265.183 775.104,279.422 L777.104,279.422 C777.104,249.846 753.13,225.871 723.554,225.871 C693.979,225.871 670.003,249.846 670.003,279.422 C670.003,308.997 693.979,332.973 723.554,332.973 C753.13,332.973 777.104,308.997 777.104,279.422 L776.104,279.422" id="Fill-355" fill="#E0574D" mask="url(#mask-68)"></path>
            <path d="M655.351,213.697 C655.351,229.392 642.628,242.114 626.934,242.114 C611.239,242.114 598.517,229.392 598.517,213.697 C598.517,198.003 611.239,185.28 626.934,185.28 C642.628,185.28 655.351,198.003 655.351,213.697" id="Fill-356" fill="#303332" mask="url(#mask-68)"></path>
            <polygon id="Fill-357" fill="#303332" mask="url(#mask-68)" points="0 10.569 35.429 10.569 35.429 0.9 0 0.9"></polygon>
        </g>
        <polygon id="Fill-359" fill="#303332" points="45.429 240.569 56 240.569 56 230.9 45.429 230.9"></polygon>
        <polygon id="Fill-360" fill="#E0564C" points="720.821 296.817 750 296.817 750 286.607 720.821 286.607"></polygon>
        <polygon id="Fill-361" fill="#E0564C" points="684.102 296.817 705.571 296.817 705.571 286.607 684.102 286.607"></polygon>
        <path d="M146.434,408.786 L124.964,408.786 L124.964,395.339 L132.595,395.339 L132.758,395.502 L132.921,395.339 L134.221,395.339 L134.221,387.317 L146.434,387.317 L146.434,408.786 M131.295,394.039 L124.964,394.039 L124.964,387.709 L131.295,394.039 M132.921,393.827 L126.411,387.317 L132.921,387.317 L132.921,393.827" id="Fill-362" fill="#E0564C"></path>
        <path d="M134.221,395.339 L132.921,395.339 L133.677,394.583 L132.921,393.827 L132.921,387.317 L134.221,387.317 L134.221,395.339 M132.595,395.339 L124.964,395.339 L124.964,394.039 L131.295,394.039 L132.595,395.339" id="Fill-363" fill="#000105"></path>
        <polyline id="Fill-364" fill="#000105" points="132.758 395.502 124.964 387.709 124.964 387.317 126.411 387.317 133.677 394.583 132.758 395.502"></polyline>
        <path d="M750,47.035 L693.714,47.035 L693.714,0 L750,0 L750,12.709 C749.568,12.224 748.938,11.917 748.237,11.917 C746.933,11.917 745.877,12.975 745.877,14.277 C745.877,15.581 746.933,16.638 748.237,16.638 C748.938,16.638 749.568,16.332 750,15.846 L750,36.309 C749.568,35.823 748.938,35.516 748.237,35.516 C746.933,35.516 745.877,36.574 745.877,37.877 C745.877,39.181 746.933,40.237 748.237,40.237 C748.938,40.237 749.568,39.931 750,39.445 L750,47.035 M724.638,35.516 C723.334,35.516 722.278,36.574 722.278,37.877 C722.278,39.181 723.334,40.237 724.638,40.237 L724.638,35.516 M701.039,35.516 C699.735,35.516 698.678,36.574 698.678,37.877 C698.678,39.181 699.735,40.237 701.039,40.237 C702.341,40.237 703.398,39.181 703.398,37.877 C703.398,36.574 702.341,35.516 701.039,35.516 M724.638,35.516 L724.638,40.237 C725.94,40.237 726.997,39.181 726.997,37.877 C726.997,36.575 725.94,35.516 724.638,35.516 M736.438,23.717 C735.133,23.717 734.077,24.775 734.077,26.077 C734.077,27.381 735.133,28.437 736.438,28.437 C737.74,28.437 738.797,27.381 738.797,26.077 C738.797,24.775 737.74,23.717 736.438,23.717 M712.838,23.717 C711.534,23.717 710.478,24.775 710.478,26.077 C710.478,27.381 711.534,28.437 712.838,28.437 C714.14,28.437 715.198,27.381 715.198,26.077 C715.198,24.775 714.14,23.717 712.838,23.717 M722.278,14.277 L722.278,14.277 C722.278,15.581 723.334,16.638 724.638,16.638 L724.638,14.277 L724.638,16.638 C725.94,16.638 726.997,15.581 726.997,14.277 C726.997,12.975 725.94,11.917 724.638,11.917 L724.638,14.277 L724.638,11.917 C723.334,11.917 722.278,12.975 722.278,14.277 M698.678,14.277 L698.678,14.277 C698.678,15.581 699.735,16.638 701.039,16.638 C702.341,16.638 703.398,15.581 703.398,14.277 C703.398,12.975 702.341,11.917 701.039,11.917 C699.735,11.917 698.678,12.975 698.678,14.277 M736.438,0.117 C735.133,0.117 734.077,1.176 734.077,2.478 C734.077,3.782 735.133,4.838 736.438,4.838 C737.74,4.838 738.797,3.782 738.797,2.478 C738.797,1.176 737.74,0.117 736.438,0.117 M712.838,0.117 C711.534,0.117 710.478,1.176 710.478,2.478 C710.478,3.782 711.534,4.838 712.838,4.838 C714.14,4.838 715.198,3.782 715.198,2.478 C715.198,1.176 714.14,0.117 712.838,0.117" id="Fill-365" fill="#E0564C"></path>
        <path d="M701.039,40.237 C699.735,40.237 698.678,39.181 698.678,37.877 C698.678,36.574 699.735,35.516 701.039,35.516 C702.341,35.516 703.398,36.574 703.398,37.877 C703.398,39.181 702.341,40.237 701.039,40.237" id="Fill-366" fill="#130205"></path>
        <path d="M724.638,40.237 C723.334,40.237 722.278,39.181 722.278,37.877 C722.278,36.574 723.334,35.516 724.638,35.516 L724.638,40.237" id="Fill-367" fill="#130205"></path>
        <path d="M712.838,28.437 C711.534,28.437 710.478,27.381 710.478,26.077 C710.478,24.775 711.534,23.717 712.838,23.717 C714.14,23.717 715.198,24.775 715.198,26.077 C715.198,27.381 714.14,28.437 712.838,28.437" id="Fill-368" fill="#130205"></path>
        <path d="M701.039,16.638 C699.735,16.638 698.678,15.581 698.678,14.277 L703.398,14.277 C703.398,15.581 702.341,16.638 701.039,16.638" id="Fill-369" fill="#130205"></path>
        <path d="M724.638,16.638 C723.334,16.638 722.278,15.581 722.278,14.277 L724.638,14.277 L724.638,16.638" id="Fill-370" fill="#130205"></path>
        <path d="M748.237,40.237 C746.933,40.237 745.877,39.181 745.877,37.877 C745.877,36.574 746.933,35.516 748.237,35.516 C748.938,35.516 749.568,35.823 750,36.309 L750,39.445 C749.568,39.931 748.938,40.237 748.237,40.237" id="Fill-371" fill="#130205"></path>
        <path d="M736.438,28.437 C735.133,28.437 734.077,27.381 734.077,26.077 C734.077,24.775 735.133,23.717 736.438,23.717 C737.74,23.717 738.797,24.775 738.797,26.077 C738.797,27.381 737.74,28.437 736.438,28.437" id="Fill-372" fill="#130205"></path>
        <path d="M724.638,40.237 L724.638,35.516 C725.94,35.516 726.997,36.575 726.997,37.877 C726.997,39.181 725.94,40.237 724.638,40.237" id="Fill-373" fill="#130205"></path>
        <path d="M748.237,16.638 C746.933,16.638 745.877,15.581 745.877,14.277 L750,14.277 L750,15.846 C749.568,16.332 748.938,16.638 748.237,16.638" id="Fill-374" fill="#130205"></path>
        <path d="M724.638,16.638 L724.638,14.277 L726.997,14.277 C726.997,15.581 725.94,16.638 724.638,16.638" id="Fill-375" fill="#130205"></path>
        <path d="M703.398,14.277 L698.678,14.277 C698.678,12.975 699.735,11.917 701.039,11.917 C702.341,11.917 703.398,12.975 703.398,14.277" id="Fill-376" fill="#130205"></path>
        <path d="M724.638,14.277 L722.278,14.277 C722.278,12.975 723.334,11.917 724.638,11.917 L724.638,14.277" id="Fill-377" fill="#130205"></path>
        <path d="M712.838,4.838 C711.534,4.838 710.478,3.782 710.478,2.478 C710.478,1.176 711.534,0.117 712.838,0.117 C714.14,0.117 715.198,1.176 715.198,2.478 C715.198,3.782 714.14,4.838 712.838,4.838" id="Fill-378" fill="#130205"></path>
        <path d="M750,14.277 L745.877,14.277 C745.877,12.975 746.933,11.917 748.237,11.917 C748.938,11.917 749.568,12.224 750,12.709 L750,14.277" id="Fill-379" fill="#130205"></path>
        <path d="M736.438,4.838 C735.133,4.838 734.077,3.782 734.077,2.478 C734.077,1.176 735.133,0.117 736.438,0.117 C737.74,0.117 738.797,1.176 738.797,2.478 C738.797,3.782 737.74,4.838 736.438,4.838" id="Fill-380" fill="#130205"></path>
        <path d="M726.997,14.277 L724.638,14.277 L724.638,11.917 C725.94,11.917 726.997,12.975 726.997,14.277" id="Fill-381" fill="#130205"></path>
        <path d="M459.786,500 L439.992,500 C439.037,497.438 437.783,495.02 436.272,492.779 C432.557,487.278 427.28,482.899 421.112,480.292 C416.997,478.553 412.491,477.591 407.71,477.59 C400.545,477.594 393.97,479.751 388.462,483.465 C382.961,487.18 378.582,492.457 375.975,498.625 C375.784,499.079 375.602,499.537 375.429,500 L355.634,500 C357.127,493.518 359.798,487.475 363.405,482.143 C369.165,473.619 377.305,466.856 386.907,462.793 C393.303,460.086 400.352,458.59 407.701,458.59 C407.703,458.59 407.707,458.59 407.71,458.59 C407.717,458.59 407.722,458.59 407.728,458.59 C418.755,458.59 429.082,461.964 437.594,467.722 C446.118,473.482 452.881,481.622 456.944,491.224 C458.133,494.033 459.089,496.969 459.786,500" id="Fill-382" fill="#E0564C"></path>
    </g>
</svg>